<svg width="220mm" height="40mm" viewBox="0 0 220 40" xmlns:xlink="http://www.w3.org/1999/xlink" xmlns="http://www.w3.org/2000/svg">
    <defs>
        <linearGradient id="a">
            <stop style="stop-color:#ff6203;stop-opacity:1" offset="0">
                <animate attributeName="stop-color" values="red;orange;yellow;green;blue;indigo;violet;red" dur="10s" repeatCount="indefinite"/>
            </stop>
            <stop style="stop-color:#bfc400;stop-opacity:1" offset="1">
                <animate attributeName="stop-color" values="blue;green;yellow;orange;red;purple;navy;blue" dur="10s" repeatCount="indefinite"/>
            </stop>
        </linearGradient>
        <linearGradient xlink:href="#a" id="b" x1="152.476" y1="216.645" x2="152.476" y2="250.305" gradientUnits="userSpaceOnUse"/>
        <linearGradient xlink:href="#a" id="d" gradientUnits="userSpaceOnUse" x1="152.476" y1="216.645" x2="152.476" y2="250.305" gradientTransform="matrix(1.0648 0 0 1.0648 -7.188 -14.609)"/>
        <linearGradient xlink:href="#a" id="l" gradientUnits="userSpaceOnUse" x1="152.476" y1="216.645" x2="152.476" y2="250.305" gradientTransform="matrix(1.0648 0 0 1.0648 -9.045 -14.609)"/>
        <linearGradient xlink:href="#a" id="e" gradientUnits="userSpaceOnUse" x1="152.476" y1="216.645" x2="152.476" y2="250.305" gradientTransform="matrix(1.0648 0 0 1.0648 -9.045 -14.609)"/>
        <linearGradient xlink:href="#a" id="o" gradientUnits="userSpaceOnUse" x1="152.476" y1="216.645" x2="152.476" y2="250.305" gradientTransform="matrix(1.0648 0 0 1.0648 -9.045 -14.609)"/>
        <linearGradient xlink:href="#a" id="n" gradientUnits="userSpaceOnUse" x1="152.476" y1="216.645" x2="152.476" y2="250.305" gradientTransform="matrix(1.0648 0 0 1.0648 -9.045 -14.609)"/>
        <linearGradient xlink:href="#a" id="i" gradientUnits="userSpaceOnUse" x1="152.476" y1="216.645" x2="152.476" y2="250.305" gradientTransform="matrix(1.0648 0 0 1.0648 -9.045 -14.609)"/>
        <linearGradient xlink:href="#a" id="m" gradientUnits="userSpaceOnUse" x1="152.476" y1="216.645" x2="152.476" y2="250.305" gradientTransform="matrix(1.0648 0 0 1.0648 -9.045 -14.609)"/>
        <linearGradient xlink:href="#a" id="k" gradientUnits="userSpaceOnUse" x1="152.476" y1="216.645" x2="152.476" y2="250.305" gradientTransform="matrix(1.0648 0 0 1.0648 -9.045 -14.609)"/>
        <linearGradient xlink:href="#a" id="j" gradientUnits="userSpaceOnUse" x1="152.476" y1="216.645" x2="152.476" y2="250.305" gradientTransform="matrix(1.0648 0 0 1.0648 -9.045 -14.609)"/>
        <linearGradient xlink:href="#a" id="h" gradientUnits="userSpaceOnUse" x1="152.476" y1="216.645" x2="152.476" y2="250.305" gradientTransform="matrix(1.0648 0 0 1.0648 -9.045 -14.609)"/>
        <linearGradient xlink:href="#a" id="g" gradientUnits="userSpaceOnUse" x1="152.476" y1="216.645" x2="152.476" y2="250.305" gradientTransform="matrix(1.0648 0 0 1.0648 -9.045 -14.609)"/>
        <linearGradient xlink:href="#a" id="f" gradientUnits="userSpaceOnUse" x1="152.476" y1="216.645" x2="152.476" y2="250.305" gradientTransform="matrix(1.0648 0 0 1.0648 -9.045 -14.609)"/>
        <linearGradient xlink:href="#a" id="c" gradientUnits="userSpaceOnUse" x1="152.476" y1="216.645" x2="152.476" y2="250.305"/>
    </defs>
    <g style="fill:url(#b);fill-opacity:1">
        <g style="fill:url(#c)" transform="translate(12.655 -205.425)">
            <path d="M192.979 222.674s-1.431 16.909-7.6 16.894c-6.168-.015-7.5-16.894-7.5-16.894h5.82s.148 6.615 1.73 6.64c1.581.026 1.891-6.64 1.891-6.64z" style="font-size:31.3645px;line-height:1;font-family:'Bauhaus 93';-inkscape-font-specification:'Bauhaus 93, ';text-align:center;text-anchor:middle;fill:url(#d);fill-opacity:1;stroke:teal;stroke-width:1.69051;stroke-opacity:1">
                <animate attributeName="fill-opacity" from="0" to="1" dur="10s"/>
            </path>
            <path d="M167.291 232.523h6.311c.087-.5.13-.956.13-1.37 0-2.445-.804-4.484-2.413-6.115-1.609-1.63-3.626-2.446-6.05-2.446-2.359 0-4.36.821-6 2.463-1.642 1.652-2.463 3.658-2.463 6.017 0 2.63.772 4.702 2.315 6.213 1.533 1.522 3.631 2.283 6.295 2.283h13.609v-6.099h-13.169c-.859 0-1.544-.212-2.055-.636-.51-.413-.766-.973-.766-1.68 0-.64.234-1.195.701-1.663.468-.467 1.022-.7 1.664-.7.674 0 1.228.211 1.663.635.435.424.652.962.652 1.614 0 .533-.141 1.028-.424 1.484z" style="font-size:31.3645px;line-height:1;font-family:'Bauhaus 93';-inkscape-font-specification:'Bauhaus 93, ';text-align:center;text-anchor:middle;fill:url(#e);fill-opacity:1;stroke:teal;stroke-width:1.69051;stroke-opacity:1">
                <animate attributeName="fill-opacity" from="0" to="1" dur="10s"/>
            </path>
            <path d="M149.54 211.348h6.1v19.186c0 2.49-.653 4.517-1.957 6.082-.75.903-1.707 1.62-2.87 2.153a8.386 8.386 0 0 1-3.555.799c-2.425 0-4.469-.815-6.132-2.446-1.663-1.63-2.495-3.631-2.495-6.001 0-2.294.826-4.278 2.479-5.952 1.652-1.674 3.61-2.511 5.87-2.511.36 0 .903.032 1.631.098v6.718c-.5-.391-1-.587-1.5-.587-.63 0-1.174.234-1.63.701a2.293 2.293 0 0 0-.67 1.664c0 .63.234 1.174.702 1.63a2.348 2.348 0 0 0 1.68.669c1.565 0 2.348-1.082 2.348-3.245z" style="font-size:31.3645px;line-height:1;font-family:'Bauhaus 93';-inkscape-font-specification:'Bauhaus 93, ';text-align:center;text-anchor:middle;fill:url(#f);fill-opacity:1;stroke:teal;stroke-width:1.69051;stroke-opacity:1">
                <animate attributeName="fill-opacity" from="0" to="1" dur="10s"/>
            </path>
            <path d="M128.773 222.641c2.305 0 4.278.832 5.92 2.495 1.652 1.653 2.478 3.637 2.478 5.952 0 2.349-.837 4.349-2.51 6.001-1.664 1.653-3.675 2.479-6.034 2.479-2.36 0-4.376-.826-6.05-2.479-1.675-1.663-2.512-3.663-2.512-6 0-2.381.837-4.382 2.512-6.002 1.674-1.63 3.74-2.446 6.196-2.446zm-.163 6.018c-.652 0-1.206.239-1.663.717-.457.468-.685 1.044-.685 1.729 0 .674.228 1.25.685 1.728.467.479 1.022.718 1.663.718.653 0 1.207-.24 1.664-.718a2.384 2.384 0 0 0 .7-1.728c0-.685-.227-1.261-.684-1.729a2.232 2.232 0 0 0-1.68-.717z" style="font-size:31.3645px;line-height:1;font-family:'Bauhaus 93';-inkscape-font-specification:'Bauhaus 93, ';text-align:center;text-anchor:middle;fill:url(#g);fill-opacity:1;stroke:teal;stroke-width:1.69051;stroke-opacity:1">
                <animate attributeName="fill-opacity" from="0" to="1" dur="10s"/>
            </path>
            <path d="M118.883 239.568h-6.099v-9.18c0-.936-.386-1.403-1.158-1.403-.76 0-1.141.467-1.141 1.402v9.181h-6.1v-9.067c0-2.12.702-3.903 2.104-5.348 1.403-1.457 3.12-2.186 5.153-2.186 2.327 0 4.191.843 5.594 2.528 1.098 1.315 1.647 3.147 1.647 5.496z" style="font-size:31.3645px;line-height:1;font-family:'Bauhaus 93';-inkscape-font-specification:'Bauhaus 93, ';text-align:center;text-anchor:middle;fill:url(#h);fill-opacity:1;stroke:teal;stroke-width:1.69051;stroke-opacity:1">
                <animate attributeName="fill-opacity" from="0" to="1" dur="10s"/>
            </path>
            <path d="M95.67 227.835v6.31c-.5.087-.956.131-1.37.131-2.445 0-4.484-.805-6.114-2.413-1.631-1.61-2.446-3.626-2.446-6.05 0-2.36.82-4.36 2.462-6.001 1.652-1.642 3.658-2.463 6.017-2.463 2.631 0 4.702.772 6.213 2.316 1.522 1.533 2.283 3.63 2.283 6.294v13.61h-6.099v-13.17c0-.858-.212-1.543-.636-2.054-.413-.511-.973-.766-1.68-.766-.64 0-1.195.233-1.662.7-.468.468-.702 1.023-.702 1.664 0 .674.212 1.229.636 1.663.424.435.962.653 1.615.653.532 0 1.027-.142 1.484-.424z" style="font-size:31.3645px;line-height:1;font-family:'Bauhaus 93';-inkscape-font-specification:'Bauhaus 93, ';text-align:center;text-anchor:middle;fill:url(#i);fill-opacity:1;stroke:teal;stroke-width:1.69051;stroke-opacity:1">
                <animate attributeName="fill-opacity" from="0" to="1" dur="10s"/>
            </path>
            <path d="M84.116 211.674v27.894h-6.099v-27.894z" style="font-size:31.3645px;line-height:1;font-family:'Bauhaus 93';-inkscape-font-specification:'Bauhaus 93, ';text-align:center;text-anchor:middle;fill:url(#j);fill-opacity:1;stroke:teal;stroke-width:1.69051;stroke-opacity:1">
                <animate attributeName="fill-opacity" from="0" to="1" dur="10s"/>
            </path>
            <path d="M75.94 211.674v27.894h-6.1v-27.894z" style="font-size:31.3645px;line-height:1;font-family:'Bauhaus 93';-inkscape-font-specification:'Bauhaus 93, ';text-align:center;text-anchor:middle;fill:url(#k);fill-opacity:1;stroke:teal;stroke-width:1.69051;stroke-opacity:1">
                <animate attributeName="fill-opacity" from="0" to="1" dur="10s"/>
            </path>
            <path d="M56.288 232.523h6.31c.088-.5.131-.956.131-1.37 0-2.445-.804-4.484-2.413-6.115-1.61-1.63-3.626-2.446-6.05-2.446-2.36 0-4.36.821-6.001 2.463-1.642 1.652-2.463 3.658-2.463 6.017 0 2.63.772 4.702 2.316 6.213 1.533 1.522 3.63 2.283 6.294 2.283h13.61v-6.099h-13.17c-.858 0-1.543-.212-2.054-.636-.51-.413-.766-.973-.766-1.68 0-.64.233-1.195.7-1.663.468-.467 1.023-.7 1.664-.7.674 0 1.229.211 1.663.635.435.424.653.962.653 1.614 0 .533-.142 1.028-.424 1.484z" style="font-size:31.3645px;line-height:1;font-family:'Bauhaus 93';-inkscape-font-specification:'Bauhaus 93, ';text-align:center;text-anchor:middle;fill:url(#l);fill-opacity:1;stroke:teal;stroke-width:1.69051;stroke-opacity:1">
                <animate attributeName="fill-opacity" from="0" to="1" dur="10s"/>
            </path>
            <path d="M44.502 223.147v6.523c-.424-.24-.81-.36-1.157-.36-1.11 0-1.664.849-1.664 2.545v7.713h-6.099v-8.887c0-2.349.642-4.218 1.925-5.61 1.282-1.402 2.995-2.104 5.136-2.104.479 0 1.098.06 1.86.18z" style="font-size:31.3645px;line-height:1;font-family:'Bauhaus 93';-inkscape-font-specification:'Bauhaus 93, ';text-align:center;text-anchor:middle;fill:url(#m);fill-opacity:1;stroke:teal;stroke-width:1.69051;stroke-opacity:1">
                <animate attributeName="fill-opacity" from="0" to="1" dur="10s"/>
            </path>
            <path d="M27.237 227.835v6.31c-.5.087-.957.131-1.37.131-2.446 0-4.484-.805-6.115-2.413-1.63-1.61-2.446-3.626-2.446-6.05 0-2.36.82-4.36 2.462-6.001 1.653-1.642 3.658-2.463 6.017-2.463 2.631 0 4.702.772 6.213 2.316 1.522 1.533 2.283 3.63 2.283 6.294v13.61h-6.098v-13.17c0-.858-.212-1.543-.636-2.054-.413-.511-.973-.766-1.68-.766-.641 0-1.196.233-1.663.7-.468.468-.701 1.023-.701 1.664 0 .674.212 1.229.635 1.663.424.435.963.653 1.615.653.533 0 1.027-.142 1.484-.424z" style="font-size:31.3645px;line-height:1;font-family:'Bauhaus 93';-inkscape-font-specification:'Bauhaus 93, ';text-align:center;text-anchor:middle;fill:url(#n);fill-opacity:1;stroke:teal;stroke-width:1.69051;stroke-opacity:1">
                <animate attributeName="fill-opacity" from="0" to="1" dur="10s"/>
            </path>
            <path d="M10.144 211.348h6.099v19.186c0 2.49-.653 4.517-1.957 6.082-.75.903-1.707 1.62-2.87 2.153a8.386 8.386 0 0 1-3.555.799c-2.424 0-4.468-.815-6.132-2.446-1.663-1.63-2.495-3.631-2.495-6.001 0-2.294.827-4.278 2.48-5.952 1.652-1.674 3.608-2.511 5.87-2.511.358 0 .902.032 1.63.098v6.718c-.5-.391-1-.587-1.5-.587-.63 0-1.174.234-1.63.701a2.293 2.293 0 0 0-.67 1.664c0 .63.235 1.174.702 1.63a2.348 2.348 0 0 0 1.68.669c1.565 0 2.348-1.082 2.348-3.245z" style="font-size:31.3645px;line-height:1;font-family:'Bauhaus 93';-inkscape-font-specification:'Bauhaus 93, ';text-align:center;text-anchor:middle;fill:url(#o);fill-opacity:1;stroke:teal;stroke-width:1.69051;stroke-opacity:1">
                <animate attributeName="fill-opacity" from="0" to="1" dur="10s"/>
            </path>
        </g>
    </g>
</svg>
