<?xml version="1.0" encoding="UTF-8" standalone="no"?>
<!-- Created with Inkscape (http://www.inkscape.org/) -->

<svg
   width="210mm"
   height="297mm"
   viewBox="0 0 210 297"
   version="1.1"
   id="svg1"
   inkscape:version="1.3.2 (091e20e, 2023-11-25, custom)"
   sodipodi:docname="darellanodev_logo.svg"
   xmlns:inkscape="http://www.inkscape.org/namespaces/inkscape"
   xmlns:sodipodi="http://sodipodi.sourceforge.net/DTD/sodipodi-0.dtd"
   xmlns:xlink="http://www.w3.org/1999/xlink"
   xmlns="http://www.w3.org/2000/svg"
   xmlns:svg="http://www.w3.org/2000/svg">
  <sodipodi:namedview
     id="namedview1"
     pagecolor="#505050"
     bordercolor="#eeeeee"
     borderopacity="1"
     inkscape:showpageshadow="0"
     inkscape:pageopacity="0"
     inkscape:pagecheckerboard="0"
     inkscape:deskcolor="#505050"
     inkscape:document-units="mm"
     inkscape:zoom="0.76702441"
     inkscape:cx="295.29699"
     inkscape:cy="377.43258"
     inkscape:window-width="1920"
     inkscape:window-height="1057"
     inkscape:window-x="-8"
     inkscape:window-y="-8"
     inkscape:window-maximized="1"
     inkscape:current-layer="g3" />
  <defs
     id="defs1">
    <linearGradient
       id="linearGradient3"
       inkscape:collect="always">
      <stop
         style="stop-color:#ff6203;stop-opacity:1;"
         offset="0"
         id="stop3" />
      <stop
         style="stop-color:#bfc400;stop-opacity:1;"
         offset="1"
         id="stop4" />
    </linearGradient>
    <linearGradient
       inkscape:collect="always"
       xlink:href="#linearGradient3"
       id="linearGradient4"
       x1="152.47581"
       y1="216.64516"
       x2="152.47581"
       y2="250.3054"
       gradientUnits="userSpaceOnUse" />
    <linearGradient
       inkscape:collect="always"
       xlink:href="#linearGradient3"
       id="linearGradient8"
       gradientUnits="userSpaceOnUse"
       x1="152.47581"
       y1="216.64516"
       x2="152.47581"
       y2="250.3054"
       gradientTransform="translate(-0.90200963)" />
    <linearGradient
       inkscape:collect="always"
       xlink:href="#linearGradient3"
       id="linearGradient9"
       gradientUnits="userSpaceOnUse"
       x1="152.47581"
       y1="216.64516"
       x2="152.47581"
       y2="250.3054"
       gradientTransform="translate(-2.6458334)" />
    <linearGradient
       inkscape:collect="always"
       xlink:href="#linearGradient3"
       id="linearGradient10"
       gradientUnits="userSpaceOnUse"
       x1="152.47581"
       y1="216.64516"
       x2="152.47581"
       y2="250.3054"
       gradientTransform="translate(-2.6458334)" />
    <linearGradient
       inkscape:collect="always"
       xlink:href="#linearGradient3"
       id="linearGradient11"
       gradientUnits="userSpaceOnUse"
       x1="152.47581"
       y1="216.64516"
       x2="152.47581"
       y2="250.3054"
       gradientTransform="translate(-2.6458334)" />
    <linearGradient
       inkscape:collect="always"
       xlink:href="#linearGradient3"
       id="linearGradient12"
       gradientUnits="userSpaceOnUse"
       x1="152.47581"
       y1="216.64516"
       x2="152.47581"
       y2="250.3054"
       gradientTransform="translate(-2.6458334)" />
    <linearGradient
       inkscape:collect="always"
       xlink:href="#linearGradient3"
       id="linearGradient13"
       gradientUnits="userSpaceOnUse"
       x1="152.47581"
       y1="216.64516"
       x2="152.47581"
       y2="250.3054"
       gradientTransform="translate(-2.6458334)" />
    <linearGradient
       inkscape:collect="always"
       xlink:href="#linearGradient3"
       id="linearGradient14"
       gradientUnits="userSpaceOnUse"
       x1="152.47581"
       y1="216.64516"
       x2="152.47581"
       y2="250.3054"
       gradientTransform="translate(-2.6458334)" />
    <linearGradient
       inkscape:collect="always"
       xlink:href="#linearGradient3"
       id="linearGradient15"
       gradientUnits="userSpaceOnUse"
       x1="152.47581"
       y1="216.64516"
       x2="152.47581"
       y2="250.3054"
       gradientTransform="translate(-2.6458334)" />
    <linearGradient
       inkscape:collect="always"
       xlink:href="#linearGradient3"
       id="linearGradient16"
       gradientUnits="userSpaceOnUse"
       x1="152.47581"
       y1="216.64516"
       x2="152.47581"
       y2="250.3054"
       gradientTransform="translate(-2.6458334)" />
    <linearGradient
       inkscape:collect="always"
       xlink:href="#linearGradient3"
       id="linearGradient17"
       gradientUnits="userSpaceOnUse"
       x1="152.47581"
       y1="216.64516"
       x2="152.47581"
       y2="250.3054"
       gradientTransform="translate(-2.6458334)" />
    <linearGradient
       inkscape:collect="always"
       xlink:href="#linearGradient3"
       id="linearGradient18"
       gradientUnits="userSpaceOnUse"
       x1="152.47581"
       y1="216.64516"
       x2="152.47581"
       y2="250.3054"
       gradientTransform="translate(-2.6458334)" />
    <linearGradient
       inkscape:collect="always"
       xlink:href="#linearGradient3"
       id="linearGradient19"
       gradientUnits="userSpaceOnUse"
       x1="152.47581"
       y1="216.64516"
       x2="152.47581"
       y2="250.3054"
       gradientTransform="translate(-2.6458334)" />
  </defs>
  <g
     inkscape:label="Layer 1"
     inkscape:groupmode="layer"
     id="layer1">
    <g
       id="g3"
       transform="translate(8.9958335,-100.54167)"
       style="fill-opacity:1;fill:url(#linearGradient4)">
      <g
         id="g19">
        <path
           d="m 58.710835,232.09346 h 5.92679 c 0.0817,-0.46965 0.12252,-0.89847 0.12252,-1.28644 0,-2.2972 -0.75553,-4.21154 -2.26658,-5.74301 -1.51105,-1.53147 -3.40497,-2.2972 -5.68176,-2.2972 -2.21552,0 -4.09413,0.77084 -5.635813,2.31251 -1.54168,1.55189 -2.31252,3.4356 -2.31252,5.65113 0,2.47077 0.7249,4.41574 2.17469,5.8349 1.439583,1.42937 3.410083,2.14405 5.911483,2.14405 h 12.78056 v -5.72769 h -12.36707 c -0.80657,0 -1.44979,-0.19909 -1.92965,-0.59727 -0.47986,-0.38798 -0.71979,-0.91378 -0.71979,-1.57742 0,-0.60238 0.21951,-1.12308 0.65853,-1.5621 0.43902,-0.43902 0.95972,-0.65853 1.5621,-0.65853 0.63301,0 1.15371,0.19909 1.5621,0.59727 0.4084,0.39819 0.61259,0.90357 0.61259,1.51616 0,0.50028 -0.13273,0.96482 -0.39818,1.39364 z"
           style="font-size:31.3645px;line-height:1;font-family:'Bauhaus 93';-inkscape-font-specification:'Bauhaus 93, ';text-align:center;text-anchor:middle;fill:url(#linearGradient9);fill-opacity:1;stroke-width:1.58763"
           id="path1-7" />
        <path
           d="m 162.9593,232.09346 h 5.92679 c 0.0817,-0.46965 0.12252,-0.89847 0.12252,-1.28644 0,-2.2972 -0.75553,-4.21154 -2.26658,-5.74301 -1.51105,-1.53147 -3.40497,-2.2972 -5.68176,-2.2972 -2.21552,0 -4.09413,0.77084 -5.63581,2.31251 -1.54168,1.55189 -2.31252,3.4356 -2.31252,5.65113 0,2.47077 0.7249,4.41574 2.17469,5.8349 1.43958,1.42937 3.41008,2.14405 5.91148,2.14405 h 12.78056 v -5.72769 H 161.6116 c -0.80657,0 -1.44979,-0.19909 -1.92965,-0.59727 -0.47986,-0.38798 -0.71979,-0.91378 -0.71979,-1.57742 0,-0.60238 0.21951,-1.12308 0.65853,-1.5621 0.43902,-0.43902 0.95972,-0.65853 1.5621,-0.65853 0.63301,0 1.15371,0.19909 1.5621,0.59727 0.4084,0.39819 0.61259,0.90357 0.61259,1.51616 0,0.50028 -0.13273,0.96482 -0.39818,1.39364 z"
           style="font-size:31.3645px;line-height:1;font-family:'Bauhaus 93';-inkscape-font-specification:'Bauhaus 93, ';text-align:center;text-anchor:middle;fill:url(#linearGradient10);fill-opacity:1;stroke-width:1.58763"
           id="path1-7-8" />
        <path
           d="m 15.374929,212.20687 h 5.727695 v 18.01818 c 0,2.33805 -0.612588,4.24218 -1.837763,5.71239 -0.704476,0.84741 -1.602938,1.52126 -2.695387,2.02154 -1.082238,0.50028 -2.195106,0.75042 -3.338603,0.75042 -2.276785,0 -4.1962264,-0.76573 -5.7583245,-2.2972 -1.5620989,-1.53147 -2.3431489,-3.41008 -2.3431489,-5.63582 0,-2.15426 0.775945,-4.01755 2.3278339,-5.58986 1.5518881,-1.57231 3.3896515,-2.35847 5.5132895,-2.35847 0.336923,0 0.847413,0.0306 1.53147,0.0919 v 6.30966 c -0.469651,-0.36755 -0.939301,-0.55133 -1.408952,-0.55133 -0.592169,0 -1.102659,0.21951 -1.53147,0.65853 -0.418602,0.42882 -0.627903,0.94952 -0.627903,1.5621 0,0.59217 0.219511,1.10266 0.658532,1.53147 0.439021,0.41861 0.964826,0.62791 1.577414,0.62791 1.470211,0 2.205317,-1.01588 2.205317,-3.04763 z"
           style="font-size:31.3645px;line-height:1;font-family:'Bauhaus 93';-inkscape-font-specification:'Bauhaus 93, ';text-align:center;text-anchor:middle;fill:url(#linearGradient11);fill-opacity:1;stroke-width:1.58763"
           id="path1-8" />
        <path
           d="m 31.427778,227.69003 v 5.92679 c -0.469651,0.0817 -0.898463,0.12252 -1.286435,0.12252 -2.297205,0 -4.211542,-0.75553 -5.743012,-2.26658 -1.531469,-1.51105 -2.297204,-3.40497 -2.297204,-5.68176 0,-2.21552 0.77084,-4.09413 2.312519,-5.63581 1.551889,-1.54168 3.435597,-2.31252 5.651123,-2.31252 2.470771,0 4.415738,0.7249 5.8349,2.17469 1.429372,1.43958 2.144058,3.41008 2.144058,5.91148 V 238.7094 H 32.31603 v -12.36707 c 0,-0.80657 -0.199091,-1.44979 -0.597273,-1.92965 -0.387973,-0.47986 -0.913777,-0.71979 -1.577414,-0.71979 -0.602378,0 -1.123078,0.21951 -1.562099,0.65853 -0.439021,0.43902 -0.658532,0.95972 -0.658532,1.5621 0,0.63301 0.199091,1.15371 0.597273,1.5621 0.398182,0.4084 0.903567,0.61259 1.516155,0.61259 0.50028,0 0.964826,-0.13273 1.393638,-0.39818 z"
           style="font-size:31.3645px;line-height:1;font-family:'Bauhaus 93';-inkscape-font-specification:'Bauhaus 93, ';text-align:center;text-anchor:middle;fill:url(#linearGradient12);fill-opacity:1;stroke-width:1.58763"
           id="path1-5" />
        <path
           d="m 95.697117,227.69003 v 5.92679 c -0.469647,0.0817 -0.898457,0.12252 -1.286424,0.12252 -2.297198,0 -4.211526,-0.75553 -5.742988,-2.26658 -1.531469,-1.51105 -2.297204,-3.40497 -2.297204,-5.68176 0,-2.21552 0.77084,-4.09413 2.312519,-5.63581 1.551887,-1.54168 3.435585,-2.31252 5.651093,-2.31252 2.470758,0 4.415716,0.7249 5.834867,2.17469 1.42937,1.43958 2.14406,3.41008 2.14406,5.91148 v 12.78056 h -5.727679 v -12.36707 c 0,-0.80657 -0.19909,-1.44979 -0.597267,-1.92965 -0.387967,-0.47986 -0.913774,-0.71979 -1.577401,-0.71979 -0.602377,0 -1.123074,0.21951 -1.562091,0.65853 -0.439017,0.43902 -0.658527,0.95972 -0.658527,1.5621 0,0.63301 0.19909,1.15371 0.597267,1.5621 0.398177,0.4084 0.903564,0.61259 1.516141,0.61259 0.500277,0 0.964824,-0.13273 1.393634,-0.39818 z"
           style="font-size:31.3645px;line-height:1;font-family:'Bauhaus 93';-inkscape-font-specification:'Bauhaus 93, ';text-align:center;text-anchor:middle;fill:url(#linearGradient13);fill-opacity:1;stroke-width:1.58763"
           id="path1-5-9" />
        <path
           d="m 47.642671,223.28749 v 6.12588 c -0.398182,-0.22461 -0.76063,-0.33692 -1.087344,-0.33692 -1.041399,0 -1.562099,0.79636 -1.562099,2.38909 v 7.24386 h -5.727697 v -8.34652 c 0,-2.20531 0.602378,-3.9614 1.807135,-5.26826 1.204756,-1.31706 2.812799,-1.97559 4.824129,-1.97559 0.449231,0 1.03119,0.0562 1.745876,0.16846 z"
           style="font-size:31.3645px;line-height:1;font-family:'Bauhaus 93';-inkscape-font-specification:'Bauhaus 93, ';text-align:center;text-anchor:middle;fill:url(#linearGradient14);fill-opacity:1;stroke-width:1.58763"
           id="path1-87" />
        <path
           d="M 77.16653,212.51316 V 238.7094 H 71.43884 V 212.51316 Z"
           style="font-size:31.3645px;line-height:1;font-family:'Bauhaus 93';-inkscape-font-specification:'Bauhaus 93, ';text-align:center;text-anchor:middle;fill:url(#linearGradient15);fill-opacity:1;stroke-width:1.58763"
           id="path1-9" />
        <path
           d="M 84.84574,212.51316 V 238.7094 H 79.11805 V 212.51316 Z"
           style="font-size:31.3645px;line-height:1;font-family:'Bauhaus 93';-inkscape-font-specification:'Bauhaus 93, ';text-align:center;text-anchor:middle;fill:url(#linearGradient16);fill-opacity:1;stroke-width:1.58763"
           id="path3" />
        <path
           d="m 117.49678,238.7094 h -5.7277 v -8.62218 c 0,-0.87804 -0.36245,-1.31707 -1.08734,-1.31707 -0.71469,0 -1.07203,0.43903 -1.07203,1.31707 v 8.62218 h -5.7277 v -8.51498 c 0,-1.99091 0.65853,-3.66532 1.9756,-5.02322 1.31706,-1.36812 2.93021,-2.05217 4.83944,-2.05217 2.1849,0 3.93588,0.79126 5.25294,2.37378 1.03119,1.23538 1.54679,2.95574 1.54679,5.16105 z"
           style="font-size:31.3645px;line-height:1;font-family:'Bauhaus 93';-inkscape-font-specification:'Bauhaus 93, ';text-align:center;text-anchor:middle;fill:url(#linearGradient17);fill-opacity:1;stroke-width:1.58763"
           id="path1-1" />
        <path
           d="m 126.78546,222.81274 c 2.16448,0 4.01756,0.78105 5.55924,2.34315 1.55189,1.55189 2.32783,3.41518 2.32783,5.58986 0,2.20532 -0.78615,4.08393 -2.35846,5.63582 -1.5621,1.55189 -3.45091,2.32783 -5.66644,2.32783 -2.21553,0 -4.10944,-0.77594 -5.68175,-2.32783 -1.57231,-1.5621 -2.35847,-3.44071 -2.35847,-5.63582 0,-2.23594 0.78616,-4.11455 2.35847,-5.63581 1.57231,-1.53147 3.51217,-2.2972 5.81958,-2.2972 z m -0.15314,5.65112 c -0.61259,0 -1.13329,0.22462 -1.5621,0.67385 -0.42881,0.43902 -0.64322,0.98014 -0.64322,1.62336 0,0.63301 0.21441,1.17413 0.64322,1.62336 0.43902,0.44923 0.95972,0.67385 1.5621,0.67385 0.61259,0 1.13329,-0.22462 1.5621,-0.67385 0.43902,-0.44923 0.65853,-0.99035 0.65853,-1.62336 0,-0.64322 -0.21441,-1.18434 -0.64322,-1.62336 -0.42881,-0.44923 -0.95462,-0.67385 -1.57741,-0.67385 z"
           style="font-size:31.3645px;line-height:1;font-family:'Bauhaus 93';-inkscape-font-specification:'Bauhaus 93, ';text-align:center;text-anchor:middle;fill:url(#linearGradient18);fill-opacity:1;stroke-width:1.58763"
           id="path1-88" />
        <path
           d="m 146.28897,212.20687 h 5.7277 v 18.01818 c 0,2.33805 -0.61259,4.24218 -1.83776,5.71239 -0.70448,0.84741 -1.60294,1.52126 -2.69539,2.02154 -1.08224,0.50028 -2.19511,0.75042 -3.3386,0.75042 -2.27679,0 -4.19623,-0.76573 -5.75833,-2.2972 -1.5621,-1.53147 -2.34315,-3.41008 -2.34315,-5.63582 0,-2.15426 0.77595,-4.01755 2.32784,-5.58986 1.55189,-1.57231 3.38965,-2.35847 5.51329,-2.35847 0.33692,0 0.84741,0.0306 1.53147,0.0919 v 6.30966 c -0.46965,-0.36755 -0.93931,-0.55133 -1.40896,-0.55133 -0.59217,0 -1.10265,0.21951 -1.53146,0.65853 -0.41861,0.42882 -0.62791,0.94952 -0.62791,1.5621 0,0.59217 0.21951,1.10266 0.65853,1.53147 0.43903,0.41861 0.96483,0.62791 1.57742,0.62791 1.47021,0 2.20531,-1.01588 2.20531,-3.04763 z"
           style="font-size:31.3645px;line-height:1;font-family:'Bauhaus 93';-inkscape-font-specification:'Bauhaus 93, ';text-align:center;text-anchor:middle;fill:url(#linearGradient19);fill-opacity:1;stroke-width:1.58763"
           id="path1-19" />
        <path
           d="m 187.08361,222.84336 c 0,0 -1.34385,15.88001 -7.13665,15.86603 -5.79281,-0.014 -7.04477,-15.86603 -7.04477,-15.86603 h 5.46736 c 0,0 0.13781,6.21272 1.62335,6.23632 1.48553,0.0236 1.77651,-6.23632 1.77651,-6.23632 z"
           style="font-size:31.3645px;line-height:1;font-family:'Bauhaus 93';-inkscape-font-specification:'Bauhaus 93, ';text-align:center;text-anchor:middle;fill:url(#linearGradient8);fill-opacity:1;stroke-width:1.58763"
           id="path8"
           sodipodi:nodetypes="czcczcc" />
      </g>
    </g>
  </g>
</svg>
