<?xml version="1.0" encoding="UTF-8" standalone="no"?>
<!-- Created with Inkscape (http://www.inkscape.org/) -->

<svg
   width="220mm"
   height="40mm"
   viewBox="0 0 220 40"
   version="1.1"
   id="svg1"
   inkscape:version="1.3.2 (091e20e, 2023-11-25, custom)"
   sodipodi:docname="darellanodev_logo.svg"
   xmlns:inkscape="http://www.inkscape.org/namespaces/inkscape"
   xmlns:sodipodi="http://sodipodi.sourceforge.net/DTD/sodipodi-0.dtd"
   xmlns:xlink="http://www.w3.org/1999/xlink"
   xmlns="http://www.w3.org/2000/svg"
   xmlns:svg="http://www.w3.org/2000/svg">
  <sodipodi:namedview
     id="namedview1"
     pagecolor="#505050"
     bordercolor="#eeeeee"
     borderopacity="1"
     inkscape:showpageshadow="0"
     inkscape:pageopacity="0"
     inkscape:pagecheckerboard="0"
     inkscape:deskcolor="#505050"
     inkscape:document-units="mm"
     inkscape:zoom="1.0847363"
     inkscape:cx="291.31504"
     inkscape:cy="312.97929"
     inkscape:window-width="1920"
     inkscape:window-height="1057"
     inkscape:window-x="-8"
     inkscape:window-y="-8"
     inkscape:window-maximized="1"
     inkscape:current-layer="g3" />
  <defs
     id="defs1">
    <linearGradient
       id="linearGradient3"
       inkscape:collect="always">
      <stop
         style="stop-color:#ff6203;stop-opacity:1;"
         offset="0"
         id="stop3" />
      <stop
         style="stop-color:#bfc400;stop-opacity:1;"
         offset="1"
         id="stop4" />
    </linearGradient>
    <linearGradient
       inkscape:collect="always"
       xlink:href="#linearGradient3"
       id="linearGradient4"
       x1="152.47581"
       y1="216.64516"
       x2="152.47581"
       y2="250.3054"
       gradientUnits="userSpaceOnUse" />
    <linearGradient
       inkscape:collect="always"
       xlink:href="#linearGradient3"
       id="linearGradient8"
       gradientUnits="userSpaceOnUse"
       x1="152.47581"
       y1="216.64516"
       x2="152.47581"
       y2="250.3054"
       gradientTransform="matrix(1.0647964,0,0,1.0647964,-7.1878192,-14.6089)" />
    <linearGradient
       inkscape:collect="always"
       xlink:href="#linearGradient3"
       id="linearGradient9"
       gradientUnits="userSpaceOnUse"
       x1="152.47581"
       y1="216.64516"
       x2="152.47581"
       y2="250.3054"
       gradientTransform="matrix(1.0647964,0,0,1.0647964,-9.044637,-14.6089)" />
    <linearGradient
       inkscape:collect="always"
       xlink:href="#linearGradient3"
       id="linearGradient10"
       gradientUnits="userSpaceOnUse"
       x1="152.47581"
       y1="216.64516"
       x2="152.47581"
       y2="250.3054"
       gradientTransform="matrix(1.0647964,0,0,1.0647964,-9.044637,-14.6089)" />
    <linearGradient
       inkscape:collect="always"
       xlink:href="#linearGradient3"
       id="linearGradient11"
       gradientUnits="userSpaceOnUse"
       x1="152.47581"
       y1="216.64516"
       x2="152.47581"
       y2="250.3054"
       gradientTransform="matrix(1.0647964,0,0,1.0647964,-9.044637,-14.6089)" />
    <linearGradient
       inkscape:collect="always"
       xlink:href="#linearGradient3"
       id="linearGradient12"
       gradientUnits="userSpaceOnUse"
       x1="152.47581"
       y1="216.64516"
       x2="152.47581"
       y2="250.3054"
       gradientTransform="matrix(1.0647964,0,0,1.0647964,-9.044637,-14.6089)" />
    <linearGradient
       inkscape:collect="always"
       xlink:href="#linearGradient3"
       id="linearGradient13"
       gradientUnits="userSpaceOnUse"
       x1="152.47581"
       y1="216.64516"
       x2="152.47581"
       y2="250.3054"
       gradientTransform="matrix(1.0647964,0,0,1.0647964,-9.044637,-14.6089)" />
    <linearGradient
       inkscape:collect="always"
       xlink:href="#linearGradient3"
       id="linearGradient14"
       gradientUnits="userSpaceOnUse"
       x1="152.47581"
       y1="216.64516"
       x2="152.47581"
       y2="250.3054"
       gradientTransform="matrix(1.0647964,0,0,1.0647964,-9.044637,-14.6089)" />
    <linearGradient
       inkscape:collect="always"
       xlink:href="#linearGradient3"
       id="linearGradient15"
       gradientUnits="userSpaceOnUse"
       x1="152.47581"
       y1="216.64516"
       x2="152.47581"
       y2="250.3054"
       gradientTransform="matrix(1.0647964,0,0,1.0647964,-9.044637,-14.6089)" />
    <linearGradient
       inkscape:collect="always"
       xlink:href="#linearGradient3"
       id="linearGradient16"
       gradientUnits="userSpaceOnUse"
       x1="152.47581"
       y1="216.64516"
       x2="152.47581"
       y2="250.3054"
       gradientTransform="matrix(1.0647964,0,0,1.0647964,-9.044637,-14.6089)" />
    <linearGradient
       inkscape:collect="always"
       xlink:href="#linearGradient3"
       id="linearGradient17"
       gradientUnits="userSpaceOnUse"
       x1="152.47581"
       y1="216.64516"
       x2="152.47581"
       y2="250.3054"
       gradientTransform="matrix(1.0647964,0,0,1.0647964,-9.044637,-14.6089)" />
    <linearGradient
       inkscape:collect="always"
       xlink:href="#linearGradient3"
       id="linearGradient18"
       gradientUnits="userSpaceOnUse"
       x1="152.47581"
       y1="216.64516"
       x2="152.47581"
       y2="250.3054"
       gradientTransform="matrix(1.0647964,0,0,1.0647964,-9.044637,-14.6089)" />
    <linearGradient
       inkscape:collect="always"
       xlink:href="#linearGradient3"
       id="linearGradient19"
       gradientUnits="userSpaceOnUse"
       x1="152.47581"
       y1="216.64516"
       x2="152.47581"
       y2="250.3054"
       gradientTransform="matrix(1.0647964,0,0,1.0647964,-9.044637,-14.6089)" />
    <linearGradient
       inkscape:collect="always"
       xlink:href="#linearGradient3"
       id="linearGradient31"
       gradientUnits="userSpaceOnUse"
       x1="152.47581"
       y1="216.64516"
       x2="152.47581"
       y2="250.3054" />
  </defs>
  <g
     inkscape:label="Layer 1"
     inkscape:groupmode="layer"
     id="layer1">
    <g
       id="g3"
       transform="translate(8.9958335,-100.54167)"
       style="fill:url(#linearGradient4);fill-opacity:1">
      <g
         id="g31"
         style="fill:url(#linearGradient31)"
         transform="translate(3.6587232,-104.8834)">
        <path
           d="m 192.9786,222.67392 c 0,0 -1.43091,16.90898 -7.59907,16.8941 -6.16817,-0.0148 -7.50124,-16.8941 -7.50124,-16.8941 h 5.82161 c 0,0 0.14674,6.61528 1.72854,6.64042 1.58178,0.0252 1.89163,-6.64042 1.89163,-6.64042 z"
           style="font-size:31.3645px;line-height:1;font-family:'Bauhaus 93';-inkscape-font-specification:'Bauhaus 93, ';text-align:center;text-anchor:middle;fill:url(#linearGradient8);fill-opacity:1;stroke:#008080;stroke-width:1.69051;stroke-opacity:1"
           id="path8"
           sodipodi:nodetypes="czcczcc"
           inkscape:label="v2" />
        <path
           d="m 167.29112,232.5234 h 6.31083 c 0.087,-0.50008 0.1305,-0.95669 0.1305,-1.3698 0,-2.44604 -0.80449,-4.48443 -2.41345,-6.11514 -1.60895,-1.63071 -3.62559,-2.44604 -6.04991,-2.44604 -2.35909,0 -4.35942,0.82079 -6.001,2.46235 -1.64158,1.65245 -2.46236,3.65821 -2.46236,6.0173 0,2.63087 0.77187,4.70187 2.3156,6.21298 1.53286,1.52199 3.63105,2.28298 6.29453,2.28298 h 13.60869 v -6.09883 h -13.16841 c -0.85884,0 -1.54373,-0.21198 -2.05469,-0.63597 -0.51095,-0.41312 -0.76643,-0.97298 -0.76643,-1.67963 0,-0.6414 0.23374,-1.19584 0.70121,-1.66331 0.46747,-0.46747 1.0219,-0.70121 1.66332,-0.70121 0.67403,0 1.22846,0.212 1.66332,0.63597 0.43485,0.42399 0.65228,0.96213 0.65228,1.61441 0,0.53269 -0.14134,1.02733 -0.42399,1.48394 z"
           style="font-size:31.3645px;line-height:1;font-family:'Bauhaus 93';-inkscape-font-specification:'Bauhaus 93, ';text-align:center;text-anchor:middle;fill:url(#linearGradient10);fill-opacity:1;stroke:#008080;stroke-width:1.69051;stroke-opacity:1"
           id="path1-7-8"
           inkscape:label="e2" />
        <path
           d="m 149.54062,211.34822 h 6.09883 v 19.1857 c 0,2.48955 -0.65228,4.51706 -1.95684,6.08253 -0.75013,0.90233 -1.7068,1.61983 -2.87004,2.15253 -1.15238,0.53269 -2.33735,0.79905 -3.55493,0.79905 -2.42433,0 -4.46814,-0.81535 -6.13145,-2.44606 -1.66331,-1.6307 -2.49498,-3.63103 -2.49498,-6.00099 0,-2.29385 0.82623,-4.27788 2.47868,-5.95206 1.65245,-1.67419 3.60929,-2.51129 5.87052,-2.51129 0.35876,0 0.90233,0.0325 1.63071,0.0979 v 6.7185 c -0.50008,-0.39136 -1.00016,-0.58704 -1.50025,-0.58704 -0.63054,0 -1.17409,0.23373 -1.6307,0.70119 -0.44573,0.45661 -0.66859,1.01105 -0.66859,1.66333 0,0.63053 0.23373,1.1741 0.7012,1.63069 0.46747,0.44574 1.02734,0.6686 1.67963,0.6686 1.56547,0 2.34821,-1.0817 2.34821,-3.2451 z"
           style="font-size:31.3645px;line-height:1;font-family:'Bauhaus 93';-inkscape-font-specification:'Bauhaus 93, ';text-align:center;text-anchor:middle;fill:url(#linearGradient19);fill-opacity:1;stroke:#008080;stroke-width:1.69051;stroke-opacity:1"
           id="path1-19"
           inkscape:label="d2" />
        <path
           d="m 128.77335,222.64133 c 2.30473,0 4.27787,0.83165 5.91945,2.49497 1.65246,1.65244 2.47867,3.63647 2.47867,5.95207 0,2.34821 -0.83709,4.34855 -2.51128,6.00099 -1.66332,1.65244 -3.67452,2.47867 -6.0336,2.47867 -2.35909,0 -4.37573,-0.82623 -6.04991,-2.47867 -1.67419,-1.66332 -2.5113,-3.66366 -2.5113,-6.00099 0,-2.38083 0.83711,-4.38117 2.5113,-6.001 1.67418,-1.6307 3.73974,-2.44604 6.19667,-2.44604 z m -0.16306,6.01728 c -0.65228,0 -1.20673,0.23918 -1.66332,0.71751 -0.4566,0.46747 -0.68491,1.04365 -0.68491,1.72856 0,0.67402 0.22831,1.2502 0.68491,1.72854 0.46747,0.47835 1.0219,0.71752 1.66332,0.71752 0.65228,0 1.20672,-0.23917 1.66331,-0.71752 0.46747,-0.47834 0.70121,-1.05452 0.70121,-1.72854 0,-0.68491 -0.22831,-1.26109 -0.68491,-1.72856 -0.45659,-0.47833 -1.01647,-0.71751 -1.67961,-0.71751 z"
           style="font-size:31.3645px;line-height:1;font-family:'Bauhaus 93';-inkscape-font-specification:'Bauhaus 93, ';text-align:center;text-anchor:middle;fill:url(#linearGradient18);fill-opacity:1;stroke:#008080;stroke-width:1.69051;stroke-opacity:1"
           id="path1-88"
           inkscape:label="o1" />
        <path
           d="m 118.88279,239.56803 h -6.09883 v -9.18087 c 0,-0.93494 -0.38593,-1.40241 -1.1578,-1.40241 -0.761,0 -1.14149,0.46747 -1.14149,1.40241 v 9.18087 h -6.09884 v -9.06672 c 0,-2.11991 0.7012,-3.90283 2.10361,-5.34871 1.40241,-1.45676 3.12008,-2.18514 5.15303,-2.18514 2.32646,0 4.1909,0.84253 5.5933,2.52758 1.09801,1.31544 1.64702,3.14728 1.64702,5.49548 z"
           style="font-size:31.3645px;line-height:1;font-family:'Bauhaus 93';-inkscape-font-specification:'Bauhaus 93, ';text-align:center;text-anchor:middle;fill:url(#linearGradient17);fill-opacity:1;stroke:#008080;stroke-width:1.69051;stroke-opacity:1"
           id="path1-1"
           inkscape:label="n1" />
        <path
           d="m 95.670589,227.83465 v 6.31083 c -0.500079,0.087 -0.956673,0.1305 -1.369779,0.1305 -2.446048,0 -4.484419,-0.80449 -6.115114,-2.41345 -1.630702,-1.60896 -2.446054,-3.6256 -2.446054,-6.04992 0,-2.35907 0.820788,-4.35941 2.462361,-6.00098 1.652445,-1.64158 3.6582,-2.46237 6.017265,-2.46237 2.630855,0 4.701839,0.77188 6.212942,2.3156 1.52198,1.53287 2.28299,3.63104 2.28299,6.29453 v 13.6087 h -6.098812 v -13.16842 c 0,-0.85883 -0.211989,-1.54374 -0.635967,-2.05469 -0.413106,-0.51095 -0.972983,-0.76643 -1.679611,-0.76643 -0.641409,0 -1.195845,0.23373 -1.663309,0.7012 -0.467464,0.46747 -0.701198,1.02192 -0.701198,1.66332 0,0.67403 0.211991,1.22848 0.635969,1.66332 0.423977,0.43487 0.962111,0.65228 1.614381,0.65228 0.532692,0 1.02734,-0.14132 1.483936,-0.42397 z"
           style="font-size:31.3645px;line-height:1;font-family:'Bauhaus 93';-inkscape-font-specification:'Bauhaus 93, ';text-align:center;text-anchor:middle;fill:url(#linearGradient13);fill-opacity:1;stroke:#008080;stroke-width:1.69051;stroke-opacity:1"
           id="path1-5-9"
           inkscape:label="a2" />
        <path
           d="m 84.116082,211.67437 v 27.89366 h -6.098825 v -27.89366 z"
           style="font-size:31.3645px;line-height:1;font-family:'Bauhaus 93';-inkscape-font-specification:'Bauhaus 93, ';text-align:center;text-anchor:middle;fill:url(#linearGradient16);fill-opacity:1;stroke:#008080;stroke-width:1.69051;stroke-opacity:1"
           id="path3"
           inkscape:label="l2" />
        <path
           d="m 75.939286,211.67437 v 27.89366 h -6.098824 v -27.89366 z"
           style="font-size:31.3645px;line-height:1;font-family:'Bauhaus 93';-inkscape-font-specification:'Bauhaus 93, ';text-align:center;text-anchor:middle;fill:url(#linearGradient15);fill-opacity:1;stroke:#008080;stroke-width:1.69051;stroke-opacity:1"
           id="path1-9"
           inkscape:label="l1" />
        <path
           d="m 56.287728,232.5234 h 6.310823 c 0.08699,-0.50008 0.130462,-0.95669 0.130462,-1.3698 0,-2.44604 -0.804487,-4.48443 -2.413447,-6.11514 -1.608961,-1.63071 -3.625599,-2.44604 -6.049918,-2.44604 -2.359078,0 -4.359415,0.82079 -6.000994,2.46235 -1.641576,1.65245 -2.462363,3.65821 -2.462363,6.0173 0,2.63087 0.77187,4.70187 2.315602,6.21298 1.532863,1.52199 3.631044,2.28298 6.294526,2.28298 H 68.021114 V 233.4692 H 54.852702 c -0.858833,0 -1.543731,-0.21198 -2.054685,-0.63597 -0.510952,-0.41312 -0.76643,-0.97298 -0.76643,-1.67963 0,-0.6414 0.233734,-1.19584 0.701201,-1.66331 0.467467,-0.46747 1.021907,-0.70121 1.663318,-0.70121 0.674028,0 1.228466,0.212 1.663319,0.63597 0.434863,0.42399 0.652284,0.96213 0.652284,1.61441 0,0.53269 -0.14133,1.02733 -0.423981,1.48394 z"
           style="font-size:31.3645px;line-height:1;font-family:'Bauhaus 93';-inkscape-font-specification:'Bauhaus 93, ';text-align:center;text-anchor:middle;fill:url(#linearGradient9);fill-opacity:1;stroke:#008080;stroke-width:1.69051;stroke-opacity:1"
           id="path1-7"
           inkscape:label="e1" />
        <path
           d="m 44.502385,223.14683 v 6.52283 c -0.423983,-0.23917 -0.809916,-0.35876 -1.1578,-0.35876 -1.108878,0 -1.663318,0.84795 -1.663318,2.54389 v 7.71324 h -6.098831 v -8.88735 c 0,-2.34821 0.64141,-4.21809 1.92423,-5.60962 1.282821,-1.4024 2.995058,-2.1036 5.136716,-2.1036 0.47834,0 1.098008,0.0598 1.859003,0.17937 z"
           style="font-size:31.3645px;line-height:1;font-family:'Bauhaus 93';-inkscape-font-specification:'Bauhaus 93, ';text-align:center;text-anchor:middle;fill:url(#linearGradient14);fill-opacity:1;stroke:#008080;stroke-width:1.69051;stroke-opacity:1"
           id="path1-87"
           inkscape:label="r1" />
        <path
           d="m 27.236824,227.83465 v 6.31083 c -0.500082,0.087 -0.956681,0.1305 -1.369791,0.1305 -2.446057,0 -4.484436,-0.80449 -6.11514,-2.41345 -1.630702,-1.60896 -2.446054,-3.6256 -2.446054,-6.04992 0,-2.35907 0.820788,-4.35941 2.462362,-6.00098 1.652446,-1.64158 3.658211,-2.46237 6.017295,-2.46237 2.630869,0 4.701863,0.77188 6.212981,2.3156 1.52199,1.53287 2.282987,3.63104 2.282987,6.29453 v 13.6087 h -6.098833 v -13.16842 c 0,-0.85883 -0.211991,-1.54374 -0.635974,-2.05469 -0.413112,-0.51095 -0.972986,-0.76643 -1.679624,-0.76643 -0.64141,0 -1.19585,0.23373 -1.663318,0.7012 -0.467467,0.46747 -0.701202,1.02192 -0.701202,1.66332 0,0.67403 0.211991,1.22848 0.635974,1.66332 0.423982,0.43487 0.962115,0.65228 1.614396,0.65228 0.532696,0 1.027343,-0.14132 1.483941,-0.42397 z"
           style="font-size:31.3645px;line-height:1;font-family:'Bauhaus 93';-inkscape-font-specification:'Bauhaus 93, ';text-align:center;text-anchor:middle;fill:url(#linearGradient12);fill-opacity:1;stroke:#008080;stroke-width:1.69051;stroke-opacity:1"
           id="path1-5"
           inkscape:label="a1" />
        <path
           d="m 10.143807,211.34822 h 6.098829 v 19.1857 c 0,2.48955 -0.652281,4.51706 -1.956843,6.08253 -0.750124,0.90233 -1.706803,1.61983 -2.870038,2.15253 -1.152363,0.53269 -2.3373423,0.79905 -3.5549332,0.79905 -2.424312,0 -4.4681272,-0.81535 -6.1314443,-2.44606 -1.66331701,-1.6307 -2.49497622,-3.63103 -2.49497622,-6.00099 0,-2.29385 0.82622433,-4.27788 2.47867032,-5.95206 1.6524445,-1.67419 3.6092882,-2.51129 5.8705296,-2.51129 0.3587546,0 0.9023234,0.0325 1.6307051,0.0979 v 6.7185 c -0.500083,-0.39136 -1.0001647,-0.58704 -1.5002478,-0.58704 -0.630539,0 -1.1741064,0.23373 -1.6307037,0.70119 -0.4457262,0.45661 -0.6685886,1.01105 -0.6685886,1.66333 0,0.63053 0.2337349,1.1741 0.7012019,1.63069 0.4674684,0.44574 1.0273445,0.6686 1.6796244,0.6686 1.5654771,0 2.3482145,-1.0817 2.3482145,-3.2451 z"
           style="font-size:31.3645px;line-height:1;font-family:'Bauhaus 93';-inkscape-font-specification:'Bauhaus 93, ';text-align:center;text-anchor:middle;fill:url(#linearGradient11);fill-opacity:1;stroke:#008080;stroke-width:1.69051;stroke-opacity:1"
           id="path1-8"
           inkscape:label="d1" />
      </g>
    </g>
  </g>
</svg>
