<?xml version="1.0" encoding="UTF-8" standalone="no"?>
<!-- Created with Inkscape (http://www.inkscape.org/) -->

<svg
   xmlns:dc="http://purl.org/dc/elements/1.1/"
   xmlns:cc="http://creativecommons.org/ns#"
   xmlns:rdf="http://www.w3.org/1999/02/22-rdf-syntax-ns#"
   xmlns:svg="http://www.w3.org/2000/svg"
   xmlns="http://www.w3.org/2000/svg"
   xmlns:xlink="http://www.w3.org/1999/xlink"
   xmlns:sodipodi="http://sodipodi.sourceforge.net/DTD/sodipodi-0.dtd"
   xmlns:inkscape="http://www.inkscape.org/namespaces/inkscape"
   width="210mm"
   height="297mm"
   viewBox="0 0 210 297"
   version="1.1"
   id="svg8"
   inkscape:version="0.92.4 (5da689c313, 2019-01-14)"
   sodipodi:docname="mainmenu.svg">
  <defs
     id="defs2">
    <linearGradient
       id="linearGradient1110">
      <stop
         id="stop1106"
         offset="0"
         style="stop-color:#3a6fdc;stop-opacity:1" />
      <stop
         id="stop1108"
         offset="1"
         style="stop-color:#422c13;stop-opacity:1" />
    </linearGradient>
    <linearGradient
       id="linearGradient4019">
      <stop
         style="stop-color:#001a01;stop-opacity:1;"
         offset="0"
         id="stop4021" />
      <stop
         style="stop-color:#008003;stop-opacity:0;"
         offset="1"
         id="stop4023" />
    </linearGradient>
    <linearGradient
       id="linearGradient3998">
      <stop
         style="stop-color:#00aa00;stop-opacity:1;"
         offset="0"
         id="stop4000" />
      <stop
         style="stop-color:#95ff95;stop-opacity:1;"
         offset="1"
         id="stop4002" />
    </linearGradient>
    <linearGradient
       id="linearGradient3719">
      <stop
         style="stop-color:#ffff00;stop-opacity:1;"
         offset="0"
         id="stop3721" />
      <stop
         style="stop-color:#ffffff;stop-opacity:1;"
         offset="1"
         id="stop3723" />
    </linearGradient>
    <linearGradient
       id="linearGradient2931">
      <stop
         style="stop-color:#81e2ff;stop-opacity:1;"
         offset="0"
         id="stop2933" />
      <stop
         style="stop-color:#bfffff;stop-opacity:1;"
         offset="1"
         id="stop2935" />
    </linearGradient>
    <inkscape:perspective
       sodipodi:type="inkscape:persp3d"
       inkscape:vp_x="0 : 64 : 1"
       inkscape:vp_y="0 : 1000 : 0"
       inkscape:vp_z="128 : 64 : 1"
       inkscape:persp3d-origin="64 : 42.666667 : 1"
       id="perspective39" />
    <inkscape:perspective
       id="perspective2870"
       inkscape:persp3d-origin="124.10069 : 97.094126 : 1"
       inkscape:vp_z="248.20137 : 145.64119 : 1"
       inkscape:vp_y="0 : 1000 : 0"
       inkscape:vp_x="0 : 145.64119 : 1"
       sodipodi:type="inkscape:persp3d" />
    <inkscape:perspective
       sodipodi:type="inkscape:persp3d"
       inkscape:vp_x="0 : 526.18109 : 1"
       inkscape:vp_y="0 : 1000 : 0"
       inkscape:vp_z="744.09448 : 526.18109 : 1"
       inkscape:persp3d-origin="372.04724 : 350.78739 : 1"
       id="perspective32" />
    <linearGradient
       id="linearGradient3274">
      <stop
         style="stop-color: rgb(255, 0, 0); stop-opacity: 1;"
         offset="0"
         id="stop3276" />
      <stop
         style="stop-color: rgb(255, 98, 98); stop-opacity: 1;"
         offset="1"
         id="stop3278" />
    </linearGradient>
    <linearGradient
       id="linearGradient3169">
      <stop
         style="stop-color:#a6ffdc;stop-opacity:1;"
         offset="0"
         id="stop3171" />
      <stop
         style="stop-color: rgb(159, 150, 150); stop-opacity: 1;"
         offset="1"
         id="stop3173" />
    </linearGradient>
    <linearGradient
       id="linearGradient3161">
      <stop
         style="stop-color: rgb(0, 190, 255); stop-opacity: 1;"
         offset="0"
         id="stop3163" />
      <stop
         style="stop-color: rgb(0, 116, 255); stop-opacity: 1;"
         offset="1"
         id="stop3165" />
    </linearGradient>
    <linearGradient
       inkscape:collect="always"
       xlink:href="#linearGradient3169"
       id="linearGradient3218"
       gradientUnits="userSpaceOnUse"
       gradientTransform="matrix(1.17318,0,0,1.22714,-28.2282,-58.9006)"
       x1="-133.21428"
       y1="544.86218"
       x2="393.21429"
       y2="602.7193" />
    <linearGradient
       inkscape:collect="always"
       xlink:href="#linearGradient3169"
       id="linearGradient3220"
       gradientUnits="userSpaceOnUse"
       x1="-133.21428"
       y1="180.93361"
       x2="393.21429"
       y2="537.005" />
    <linearGradient
       inkscape:collect="always"
       xlink:href="#linearGradient3161"
       id="linearGradient3222"
       gradientUnits="userSpaceOnUse"
       x1="-60.221073"
       y1="215.21931"
       x2="320.22107"
       y2="501.29077" />
    <inkscape:perspective
       sodipodi:type="inkscape:persp3d"
       inkscape:vp_x="0 : 526.18109 : 1"
       inkscape:vp_y="0 : 1000 : 0"
       inkscape:vp_z="744.09448 : 526.18109 : 1"
       inkscape:persp3d-origin="372.04724 : 350.78739 : 1"
       id="perspective2791" />
    <linearGradient
       inkscape:collect="always"
       id="linearGradient3819">
      <stop
         style="stop-color:#ffffff;stop-opacity:1;"
         offset="0"
         id="stop3821" />
      <stop
         style="stop-color:#ffffff;stop-opacity:0;"
         offset="1"
         id="stop3823" />
    </linearGradient>
    <linearGradient
       id="linearGradient3805">
      <stop
         style="stop-color:#ffffff;stop-opacity:1;"
         offset="0"
         id="stop3807" />
      <stop
         style="stop-color:#000000;stop-opacity:1"
         offset="1"
         id="stop3809" />
    </linearGradient>
    <linearGradient
       inkscape:collect="always"
       id="linearGradient3787">
      <stop
         style="stop-color:#e9c6af;stop-opacity:1;"
         offset="0"
         id="stop3789" />
      <stop
         style="stop-color:#e9c6af;stop-opacity:0;"
         offset="1"
         id="stop3791" />
    </linearGradient>
    <linearGradient
       inkscape:collect="always"
       id="linearGradient3777">
      <stop
         style="stop-color:#e9c6af;stop-opacity:1"
         offset="0"
         id="stop3779" />
      <stop
         style="stop-color:#ffb380;stop-opacity:0;"
         offset="1"
         id="stop3781" />
    </linearGradient>
    <inkscape:perspective
       sodipodi:type="inkscape:persp3d"
       inkscape:vp_x="0 : 526.18109 : 1"
       inkscape:vp_y="0 : 1000 : 0"
       inkscape:vp_z="744.09448 : 526.18109 : 1"
       inkscape:persp3d-origin="372.04724 : 350.78739 : 1"
       id="perspective2915" />
    <radialGradient
       inkscape:collect="always"
       xlink:href="#linearGradient3777"
       id="radialGradient3783"
       cx="-813.12628"
       cy="-94.644592"
       fx="-813.12628"
       fy="-94.644592"
       r="115.36326"
       gradientTransform="matrix(0.2121045,-0.4430781,1.0102174,0.4835979,-531.22787,-450.2596)"
       gradientUnits="userSpaceOnUse" />
    <radialGradient
       inkscape:collect="always"
       xlink:href="#linearGradient3787"
       id="radialGradient3793"
       cx="-411.91803"
       cy="-155.89888"
       fx="-411.91803"
       fy="-155.89888"
       r="100.02526"
       gradientTransform="matrix(0.517926,2.4443536e-8,-3.9212833e-8,0.4489316,-208.63166,-91.522765)"
       gradientUnits="userSpaceOnUse" />
    <linearGradient
       inkscape:collect="always"
       xlink:href="#linearGradient3819"
       id="linearGradient3825"
       x1="-776.61304"
       y1="16.878105"
       x2="-785.38751"
       y2="16.656706"
       gradientUnits="userSpaceOnUse" />
    <inkscape:perspective
       id="perspective2494"
       inkscape:persp3d-origin="112.32812 : 84.755096 : 1"
       inkscape:vp_z="224.65625 : 127.13264 : 1"
       inkscape:vp_y="0 : 1000 : 0"
       inkscape:vp_x="0 : 127.13264 : 1"
       sodipodi:type="inkscape:persp3d" />
    <inkscape:perspective
       id="perspective3478"
       inkscape:persp3d-origin="111.537 : 85.496002 : 1"
       inkscape:vp_z="223.07401 : 128.244 : 1"
       inkscape:vp_y="0 : 1000 : 0"
       inkscape:vp_x="0 : 128.244 : 1"
       sodipodi:type="inkscape:persp3d" />
    <inkscape:perspective
       id="perspective3746"
       inkscape:persp3d-origin="125.38622 : 131.1631 : 1"
       inkscape:vp_z="250.77245 : 196.74464 : 1"
       inkscape:vp_y="0 : 1000 : 0"
       inkscape:vp_x="0 : 196.74464 : 1"
       sodipodi:type="inkscape:persp3d" />
    <inkscape:perspective
       id="perspective4565"
       inkscape:persp3d-origin="111.537 : 91.780334 : 1"
       inkscape:vp_z="223.07401 : 137.6705 : 1"
       inkscape:vp_y="0 : 1000 : 0"
       inkscape:vp_x="0 : 137.6705 : 1"
       sodipodi:type="inkscape:persp3d" />
    <inkscape:perspective
       id="perspective4802"
       inkscape:persp3d-origin="122.03675 : 84.677867 : 1"
       inkscape:vp_z="244.0735 : 127.0168 : 1"
       inkscape:vp_y="0 : 1000 : 0"
       inkscape:vp_x="0 : 127.0168 : 1"
       sodipodi:type="inkscape:persp3d" />
    <inkscape:perspective
       id="perspective4927"
       inkscape:persp3d-origin="146.66617 : 131.10267 : 1"
       inkscape:vp_z="293.33234 : 196.65401 : 1"
       inkscape:vp_y="0 : 1000 : 0"
       inkscape:vp_x="0 : 196.65401 : 1"
       sodipodi:type="inkscape:persp3d" />
    <inkscape:perspective
       id="perspective5128"
       inkscape:persp3d-origin="112.32812 : 84.755096 : 1"
       inkscape:vp_z="224.65625 : 127.13264 : 1"
       inkscape:vp_y="0 : 1000 : 0"
       inkscape:vp_x="0 : 127.13264 : 1"
       sodipodi:type="inkscape:persp3d" />
    <inkscape:perspective
       id="perspective5413"
       inkscape:persp3d-origin="119 : 94.388997 : 1"
       inkscape:vp_z="238 : 141.5835 : 1"
       inkscape:vp_y="0 : 1000 : 0"
       inkscape:vp_x="0 : 141.5835 : 1"
       sodipodi:type="inkscape:persp3d" />
    <inkscape:perspective
       id="perspective3889"
       inkscape:persp3d-origin="111.537 : 85.496002 : 1"
       inkscape:vp_z="223.07401 : 128.244 : 1"
       inkscape:vp_y="0 : 1000 : 0"
       inkscape:vp_x="0 : 128.244 : 1"
       sodipodi:type="inkscape:persp3d" />
    <inkscape:perspective
       id="perspective7812"
       inkscape:persp3d-origin="0.5 : 0.33333333 : 1"
       inkscape:vp_z="1 : 0.5 : 1"
       inkscape:vp_y="0 : 1000 : 0"
       inkscape:vp_x="0 : 0.5 : 1"
       sodipodi:type="inkscape:persp3d" />
    <inkscape:perspective
       id="perspective4157"
       inkscape:persp3d-origin="0.5 : 0.33333333 : 1"
       inkscape:vp_z="1 : 0.5 : 1"
       inkscape:vp_y="0 : 1000 : 0"
       inkscape:vp_x="0 : 0.5 : 1"
       sodipodi:type="inkscape:persp3d" />
    <inkscape:perspective
       id="perspective4081"
       inkscape:persp3d-origin="0.5 : 0.33333333 : 1"
       inkscape:vp_z="1 : 0.5 : 1"
       inkscape:vp_y="0 : 1000 : 0"
       inkscape:vp_x="0 : 0.5 : 1"
       sodipodi:type="inkscape:persp3d" />
    <inkscape:perspective
       id="perspective2909"
       inkscape:persp3d-origin="0.5 : 0.33333333 : 1"
       inkscape:vp_z="1 : 0.5 : 1"
       inkscape:vp_y="0 : 1000 : 0"
       inkscape:vp_x="0 : 0.5 : 1"
       sodipodi:type="inkscape:persp3d" />
    <linearGradient
       inkscape:collect="always"
       xlink:href="#linearGradient2931"
       id="linearGradient2937"
       x1="58.765118"
       y1="100.23344"
       x2="68.881554"
       y2="29.654148"
       gradientUnits="userSpaceOnUse" />
    <linearGradient
       inkscape:collect="always"
       xlink:href="#linearGradient3719"
       id="linearGradient3717"
       x1="297.41113"
       y1="270.41547"
       x2="132.12135"
       y2="183.08011"
       gradientUnits="userSpaceOnUse" />
    <linearGradient
       inkscape:collect="always"
       xlink:href="#linearGradient3719"
       id="linearGradient3725"
       x1="263.97836"
       y1="213.56012"
       x2="146.20819"
       y2="271.33719"
       gradientUnits="userSpaceOnUse" />
    <linearGradient
       inkscape:collect="always"
       xlink:href="#linearGradient1110"
       id="linearGradient3124"
       gradientUnits="userSpaceOnUse"
       x1="-1297.5732"
       y1="161.72171"
       x2="-1297.5732"
       y2="32.530834"
       gradientTransform="matrix(8.385281,0,0,-8.385281,11544.967,1409.3052)" />
    <linearGradient
       inkscape:collect="always"
       xlink:href="#linearGradient3169"
       id="linearGradient3151"
       gradientUnits="userSpaceOnUse"
       x1="-1297.5732"
       y1="161.72171"
       x2="-1297.5732"
       y2="32.530834"
       gradientTransform="translate(210.06986,0)" />
    <radialGradient
       inkscape:collect="always"
       xlink:href="#linearGradient4019"
       id="radialGradient4025"
       cx="-1333.3022"
       cy="148.4447"
       fx="-1333.3022"
       fy="148.4447"
       r="67.489494"
       gradientTransform="matrix(1,0,0,0.39413681,0,89.937181)"
       gradientUnits="userSpaceOnUse" />
  </defs>
  <sodipodi:namedview
     id="base"
     pagecolor="#ffffff"
     bordercolor="#666666"
     borderopacity="1.0"
     inkscape:pageopacity="0.0"
     inkscape:pageshadow="2"
     inkscape:zoom="0.35"
     inkscape:cx="524.68264"
     inkscape:cy="307.55968"
     inkscape:document-units="mm"
     inkscape:current-layer="layer1"
     showgrid="false"
     inkscape:window-width="1920"
     inkscape:window-height="1057"
     inkscape:window-x="-8"
     inkscape:window-y="-8"
     inkscape:window-maximized="1" />
  <metadata
     id="metadata5">
    <rdf:RDF>
      <cc:Work
         rdf:about="">
        <dc:format>image/svg+xml</dc:format>
        <dc:type
           rdf:resource="http://purl.org/dc/dcmitype/StillImage" />
        <dc:title />
      </cc:Work>
    </rdf:RDF>
  </metadata>
  <g
     inkscape:label="Capa 1"
     inkscape:groupmode="layer"
     id="layer1">
    <rect
       inkscape:export-ydpi="292.73001"
       inkscape:export-xdpi="292.73001"
       inkscape:export-filename="D:\xampp\htdocs\proyectos\darellanodev.github.io\img\icons\jetpack.png"
       y="-9.2605124"
       x="-99.885506"
       height="251.93195"
       width="251.93195"
       id="rect1112"
       style="fill:none;fill-opacity:1;stroke:none;stroke-width:4.08647633;stroke-opacity:1" />
    <path
       style="display:inline;fill:url(#linearGradient3124);fill-opacity:1;fill-rule:evenodd;stroke:none;stroke-width:25.15583992;stroke-opacity:1"
       d="M -247.58203 130.07031 L -247.58203 964.64453 L 865.18164 964.64453 L 865.18164 130.07031 L -247.58203 130.07031 z "
       transform="scale(0.26458333)"
       id="rect2899"
       inkscape:export-filename="D:\xampp\htdocs\proyectos\go-jetpack-game\assets\img\mainmenu\mainmenu.png"
       inkscape:export-xdpi="88.342209"
       inkscape:export-ydpi="88.342209" />
    <path
       inkscape:connector-curvature="0"
       id="path1054"
       d=""
       style="fill:#000000;stroke-width:10.66951275" />
    <g
       transform="matrix(2.0457896,0.75383969,-0.75383969,2.0457896,-125.70149,-187.97201)"
       id="g1104">
      <g
         transform="matrix(0.42122396,0,0,0.42122396,88.224471,89.953425)"
         id="g1072">
        <path
           style="fill:#000000;fill-opacity:0"
           d="M 0,0.5 V 0 H 0.5 1 1.5 2 2.5 3 3.5 4 4.5 5 5.5 6 6.5 7 7.5 8 8.5 9 9.5 10 10.5 11 11.5 12 12.5 13 13.5 14 14.5 15 15.5 16 16.5 17 17.5 18 18.5 19 19.5 20 20.5 21 21.5 22 22.5 23 23.5 24 24.5 25 25.5 26 26.5 27 27.5 28 28.5 29 29.5 30 30.5 31 31.5 32 V 0.5 1 1.5 2 2.5 3 3.5 4 4.5 5 5.5 6 6.5 7 7.5 8 8.5 9 9.5 10 10.5 11 11.5 12 12.5 13 13.5 14 14.5 15 15.5 16 16.5 17 17.5 18 18.5 19 19.5 20 20.5 21 21.5 22 22.5 23 23.5 24 24.5 25 25.5 26 26.5 27 27.5 28 28.5 29 29.5 30 30.5 31 31.5 32 32.5 33 33.5 34 34.5 35 35.5 36 36.5 37 37.5 38 38.5 39 39.5 40 40.5 41 41.5 42 42.5 43 43.5 44 44.5 45 45.5 46 46.5 47 47.5 48 48.5 49 49.5 50 50.5 51 51.5 52 52.5 53 53.5 54 54.5 55 55.5 56 56.5 57 57.5 58 58.5 59 59.5 60 60.5 61 61.5 62 62.5 63 63.5 64 H 31.5 31 30.5 30 29.5 29 28.5 28 27.5 27 26.5 26 25.5 25 24.5 24 23.5 23 22.5 22 21.5 21 20.5 20 19.5 19 18.5 18 17.5 17 16.5 16 15.5 15 14.5 14 13.5 13 12.5 12 11.5 11 10.5 10 9.5 9 8.5 8 7.5 7 6.5 6 5.5 5 4.5 4 3.5 3 2.5 2 1.5 1 0.5 0 V 63.5 63 62.5 62 61.5 61 60.5 60 59.5 59 58.5 58 57.5 57 56.5 56 55.5 55 54.5 54 53.5 53 52.5 52 51.5 51 50.5 50 49.5 49 48.5 48 47.5 47 46.5 46 45.5 45 44.5 44 43.5 43 42.5 42 41.5 41 40.5 40 39.5 39 38.5 38 37.5 37 36.5 36 h 0.5 q 0.5,0 1,0 0.5,0 1,0 0.5,0 1,0 0.5,0 1,0 0.5,0 1,0 0.5,0 1,0 0.5,0 1,0 0.5,0 1,0 0.5,0 1,0 H 10 v 0.5 q 0,0.5 0,1 0,0.5 0,1 0,0.5 0.125,0.875 0.125,0.375 0.5,0.5 Q 11,40 11.5,40 H 12 v 0.5 q 0,0.5 0,1 0,0.5 0,1 0,0.5 0,1 0,0.5 0,1 0,0.5 0,1 0,0.5 0,1 0,0.5 0,1 0,0.5 0,1 0,0.5 -0.125,0.875 -0.125,0.375 -0.5,0.5 Q 11,50 10.625,50.125 10.25,50.25 10.125,50.625 10,51 10,51.5 q 0,0.5 0,1 0,0.5 0,1 0,0.5 0,1 0,0.5 -0.125,0.875 -0.125,0.375 -0.5,0.5 Q 9,56 8.625,56.125 8.25,56.25 8.125,56.625 8,57 8,57.5 q 0,0.5 0,1 0,0.5 0.125,0.875 0.125,0.375 0.5,0.5 Q 9,60 9.5,60 q 0.5,0 1,0 0.5,0 1,0 0.5,0 1,0 0.5,0 1,0 0.5,0 1,0 0.5,0 1,0 0.5,0 1,0 0.5,0 0.875,-0.125 0.375,-0.125 0.5,-0.5 Q 18,59 18,58.5 18,58 18,57.5 18,57 17.875,56.625 17.75,56.25 17.375,56.125 17,56 16.5,56 q -0.5,0 -1,0 -0.5,0 -0.875,-0.125 -0.375,-0.125 -0.5,-0.5 -0.125,-0.375 0,-0.75 0.125,-0.375 0.5,-0.5 Q 15,54 15.375,53.875 15.75,53.75 15.875,53.375 16,53 16,52.5 q 0,-0.5 0,-1 0,-0.5 0.125,-0.875 0.125,-0.375 0.5,-0.5 Q 17,50 17.5,50 H 18 v 0.5 q 0,0.5 0,1 0,0.5 0,1 0,0.5 0.125,0.875 0.125,0.375 0.5,0.5 0.375,0.125 0.75,0.25 0.375,0.125 0.5,0.5 Q 20,55 20,55.5 q 0,0.5 0,1 0,0.5 0,1 0,0.5 0,1 0,0.5 0.125,0.875 0.125,0.375 0.5,0.5 Q 21,60 21.5,60 q 0.5,0 1,0 0.5,0 1,0 0.5,0 1,0 0.5,0 1,0 0.5,0 1,0 0.5,0 0.875,-0.125 0.375,-0.125 0.5,-0.5 Q 28,59 28,58.5 28,58 28,57.5 28,57 27.875,56.625 27.75,56.25 27.375,56.125 27,56 26.5,56 26,56 25.5,56 25,56 24.625,55.875 24.25,55.75 24.125,55.375 24,55 24,54.5 q 0,-0.5 0,-1 0,-0.5 0,-1 0,-0.5 0,-1 0,-0.5 -0.125,-0.875 -0.125,-0.375 -0.5,-0.5 Q 23,50 22.625,49.875 22.25,49.75 22.125,49.375 22,49 22,48.5 q 0,-0.5 0,-1 0,-0.5 0,-1 0,-0.5 0,-1 0,-0.5 0,-1 0,-0.5 0,-1 0,-0.5 0,-1 0,-0.5 0,-1 0,-0.5 0,-1 0,-0.5 0,-1 0,-0.5 0,-1 V 38 h 0.5 q 0.5,0 1,0 0.5,0 1,0 0.5,0 0.875,-0.125 0.375,-0.125 0.5,-0.5 Q 26,37 26,36.5 q 0,-0.5 0,-1 0,-0.5 0,-1 0,-0.5 0,-1 0,-0.5 -0.125,-0.875 -0.125,-0.375 -0.5,-0.5 Q 25,32 24.625,31.875 24.25,31.75 24.125,31.375 24,31 24,30.5 q 0,-0.5 0,-1 0,-0.5 0,-1 0,-0.5 0,-1 0,-0.5 0,-1 0,-0.5 0,-1 0,-0.5 -0.125,-0.875 -0.125,-0.375 -0.5,-0.5 Q 23,24 22.5,24 H 22 v -0.5 q 0,-0.5 0,-1 0,-0.5 0,-1 0,-0.5 0,-1 0,-0.5 0,-1 0,-0.5 -0.125,-0.875 -0.125,-0.375 -0.5,-0.5 Q 21,18 20.625,17.875 20.25,17.75 20.125,17.375 20,17 19.875,16.625 19.75,16.25 19.375,16.125 19,16 18.5,16 q -0.5,0 -1,0 -0.5,0 -1,0 -0.5,0 -1,0 -0.5,0 -1,0 -0.5,0 -1,0 -0.5,0 -0.875,0.125 -0.375,0.125 -0.5,0.5 Q 12,17 12,17.5 q 0,0.5 0,1 0,0.5 0,1 0,0.5 0,1 0,0.5 0,1 0,0.5 0,1 0,0.5 0,1 0,0.5 0,1 0,0.5 0,1 0,0.5 0,1 0,0.5 -0.125,0.875 -0.125,0.375 -0.5,0.5 Q 11,28 10.5,28 H 10 v -0.5 q 0,-0.5 0,-1 0,-0.5 0,-1 0,-0.5 0,-1 0,-0.5 0,-1 0,-0.5 0,-1 0,-0.5 0,-1 0,-0.5 0,-1 0,-0.5 0,-1 0,-0.5 0,-1 0,-0.5 0,-1 Q 10,17 9.875,16.625 9.75,16.25 9.375,16.125 9,16 8.5,16 8,16 7.5,16 7,16 6.5,16 6,16 5.5,16 5,16 4.5,16 4,16 3.5,16 3,16 2.625,16.125 2.25,16.25 2.125,16.625 2,17 2,17.5 q 0,0.5 0,1 0,0.5 0,1 0,0.5 0,1 0,0.5 -0.125,0.875 -0.125,0.375 -0.5,0.5 Q 1,22 0.5,22 H 0 V 21.5 21 20.5 20 19.5 19 18.5 18 17.5 17 16.5 16 15.5 15 14.5 14 13.5 13 12.5 12 11.5 11 10.5 10 9.5 9 8.5 8 7.5 7 6.5 6 5.5 5 4.5 4 3.5 3 2.5 2 1.5 1 0.5 M 10,27.625 V 28 28.125 28.25 28 q 0,-0.25 0,-0.5 v -0.25 0.375 m 12,-4 V 24 24.125 24.25 24 q 0,-0.25 0,-0.5 v -0.25 0.375 M 24.5,14 q 0.5,0 0.875,-0.125 0.375,-0.125 0.5,-0.5 Q 26,13 26,12.5 q 0,-0.5 0,-1 0,-0.5 0,-1 0,-0.5 0,-1 Q 26,9 26,8.5 26,8 26,7.5 26,7 26,6.5 26,6 26,5.5 26,5 25.875,4.625 25.75,4.25 25.375,4.125 25,4 24.625,3.875 24.25,3.75 24.125,3.375 24,3 23.875,2.625 23.75,2.25 23.375,2.125 23,2 22.5,2 22,2 21.5,2 21,2 20.5,2 20,2 19.5,2 19,2 18.5,2 18,2 17.5,2 17,2 16.625,2.125 16.25,2.25 16.125,2.625 16,3 15.875,3.375 15.75,3.75 15.375,3.875 15,4 14.625,4.125 14.25,4.25 14.125,4.625 14,5 14,5.5 q 0,0.5 0,1 0,0.5 0,1 0,0.5 0,1 0,0.5 0.125,0.875 0.125,0.375 0.5,0.5 0.375,0.125 0.75,0.25 0.375,0.125 0.5,0.5 Q 16,11 16,11.5 q 0,0.5 0,1 0,0.5 0.125,0.875 0.125,0.375 0.5,0.5 Q 17,14 17.5,14 q 0.5,0 1,0 0.5,0 1,0 0.5,0 1,0 0.5,0 1,0 0.5,0 1,0 0.5,0 1,0 0.5,0 1,0 M 22,37.875 V 38 38.375 38.75 38.5 q 0,-0.25 0,-0.5 v -0.25 0.125 m -4,12.5 V 50 49.875 49.75 50 q 0,0.25 0,0.5 v 0.25 -0.375 M 12.125,40 H 12 11.625 11.25 11.5 q 0.25,0 0.5,0 h 0.25 -0.125 M 10,36.375 V 36 35.875 35.75 36 q 0,0.25 0,0.5 v 0.25 -0.375"
           id="path1056"
           inkscape:connector-curvature="0" />
        <path
           style="fill:#ffffff;fill-opacity:1"
           d="M 16.125,2.625 Q 16.25,2.25 16.625,2.125 17,2 17.5,2 q 0.5,0 1,0 0.5,0 1,0 0.5,0 1,0 0.5,0 1,0 0.5,0 1,0 0.5,0 0.875,0.125 0.375,0.125 0.5,0.5 Q 24,3 24.125,3.375 24.25,3.75 24.625,3.875 25,4 25.375,4.125 25.75,4.25 25.875,4.625 26,5 26,5.5 V 6 H 25.5 Q 25,6 24.5,6 24,6 23.5,6 23,6 22.5,6 22,6 21.5,6 21,6 20.625,6.125 20.25,6.25 20.125,6.625 20,7 20,7.5 q 0,0.5 0,1 0,0.5 0.125,0.875 0.125,0.375 0.5,0.5 0.375,0.125 0.75,0.25 0.375,0.125 0.5,0.5 0.125,0.375 0.25,0.75 0.125,0.375 0.5,0.5 Q 23,12 23.5,12 q 0.5,0 1,0 0.5,0 1,0 H 26 v 0.5 q 0,0.5 -0.125,0.875 -0.125,0.375 -0.5,0.5 Q 25,14 24.5,14 q -0.5,0 -1,0 -0.5,0 -1,0 -0.5,0 -1,0 -0.5,0 -1,0 -0.5,0 -1,0 -0.5,0 -1,0 -0.5,0 -1,0 -0.5,0 -0.875,-0.125 -0.375,-0.125 -0.5,-0.5 Q 16,13 16,12.5 16,12 16,11.5 16,11 15.875,10.625 15.75,10.25 15.375,10.125 15,10 14.625,9.875 14.25,9.75 14.125,9.375 14,9 14,8.5 14,8 14,7.5 14,7 14,6.5 14,6 14,5.5 14,5 14.125,4.625 14.25,4.25 14.625,4.125 15,4 15.375,3.875 15.75,3.75 15.875,3.375 16,3 16.125,2.625 M 26,12.375 V 12 11.875 11.75 12 q 0,0.25 0,0.5 v 0.25 -0.375 m 0,-6.25 V 6 5.625 5.25 5.5 Q 26,5.75 26,6 V 6.25 6.125"
           id="path1058"
           inkscape:connector-curvature="0" />
        <path
           style="fill:#8d8d8d;fill-opacity:1"
           d="M 20.125,6.625 Q 20.25,6.25 20.625,6.125 21,6 21.5,6 q 0.5,0 1,0 0.5,0 1,0 0.5,0 1,0 0.5,0 1,0 H 26 v 0.5 q 0,0.5 0,1 0,0.5 0,1 0,0.5 0,1 0,0.5 0,1 0,0.5 0,1 V 12 h -0.5 q -0.5,0 -1,0 -0.5,0 -1,0 -0.5,0 -0.875,-0.125 -0.375,-0.125 -0.5,-0.5 Q 22,11 21.875,10.625 21.75,10.25 21.375,10.125 21,10 20.625,9.875 20.25,9.75 20.125,9.375 20,9 20,8.5 20,8 20,7.5 20,7 20.125,6.625 M 26,12.125 V 12 11.625 11.25 11.5 q 0,0.25 0,0.5 v 0.25 -0.125 m 0,-5.75 V 6 5.875 5.75 6 q 0,0.25 0,0.5 V 6.75 6.375"
           id="path1060"
           inkscape:connector-curvature="0" />
        <path
           style="fill:#ffffff;fill-opacity:1"
           d="M 2.125,16.625 Q 2.25,16.25 2.625,16.125 3,16 3.5,16 q 0.5,0 1,0 0.5,0 1,0 0.5,0 1,0 0.5,0 1,0 0.5,0 1,0 0.5,0 0.875,0.125 0.375,0.125 0.5,0.5 Q 10,17 10,17.5 q 0,0.5 0,1 0,0.5 0,1 0,0.5 0,1 0,0.5 0,1 0,0.5 0,1 0,0.5 0,1 0,0.5 0,1 0,0.5 0,1 0,0.5 0,1 0,0.5 0,1 0,0.5 0,1 0,0.5 0,1 0,0.5 0,1 0,0.5 0,1 0,0.5 0,1 0,0.5 0,1 0,0.5 0,1 0,0.5 0,1 V 36 H 9.5 Q 9,36 8.5,36 8,36 7.5,36 7,36 6.5,36 6,36 5.5,36 5,36 4.5,36 4,36 3.5,36 3,36 2.5,36 2,36 1.5,36 1,36 0.5,36 H 0 V 35.5 35 34.5 34 33.5 33 32.5 32 31.5 31 30.5 30 29.5 29 28.5 28 27.5 27 26.5 26 25.5 25 24.5 24 23.5 23 22.5 22 H 0.5 Q 1,22 1.375,21.875 1.75,21.75 1.875,21.375 2,21 2,20.5 2,20 2,19.5 2,19 2,18.5 2,18 2,17.5 2,17 2.125,16.625 M 10,36.125 V 36 35.625 35.25 35.5 q 0,0.25 0,0.5 v 0.25 -0.125"
           id="path1062"
           inkscape:connector-curvature="0" />
        <path
           style="fill:#ffffff;fill-opacity:1"
           d="m 12.125,16.625 q 0.125,-0.375 0.5,-0.5 Q 13,16 13.5,16 q 0.5,0 1,0 0.5,0 1,0 0.5,0 1,0 0.5,0 1,0 0.5,0 1,0 0.5,0 0.875,0.125 0.375,0.125 0.5,0.5 0.125,0.375 0.25,0.75 0.125,0.375 0.5,0.5 0.375,0.125 0.75,0.25 0.375,0.125 0.5,0.5 Q 22,19 22,19.5 q 0,0.5 0,1 0,0.5 0,1 0,0.5 0,1 0,0.5 0,1 0,0.5 0,1 0,0.5 0,1 0,0.5 0,1 0,0.5 0,1 0,0.5 0,1 0,0.5 0,1 0,0.5 0,1 0,0.5 0,1 0,0.5 0,1 0,0.5 0,1 0,0.5 0,1 0,0.5 0,1 0,0.5 0,1 0,0.5 0,1 0,0.5 0,1 0,0.5 0,1 0,0.5 0,1 0,0.5 0,1 V 42 h -0.5 q -0.5,0 -0.875,0.125 -0.375,0.125 -0.5,0.5 Q 20,43 19.875,43.375 19.75,43.75 19.375,43.875 19,44 18.625,44.125 18.25,44.25 18.125,44.625 18,45 18,45.5 q 0,0.5 0,1 0,0.5 0,1 0,0.5 0,1 0,0.5 0,1 V 50 h -0.5 q -0.5,0 -0.875,0.125 -0.375,0.125 -0.5,0.5 Q 16,51 16,51.5 q 0,0.5 0,1 0,0.5 -0.125,0.875 -0.125,0.375 -0.5,0.5 -0.375,0.125 -0.75,0.25 -0.375,0.125 -0.5,0.5 -0.125,0.375 0,0.75 0.125,0.375 0.5,0.5 Q 15,56 15.5,56 q 0.5,0 1,0 0.5,0 0.875,0.125 0.375,0.125 0.5,0.5 Q 18,57 18,57.5 q 0,0.5 0,1 0,0.5 -0.125,0.875 -0.125,0.375 -0.5,0.5 Q 17,60 16.5,60 q -0.5,0 -1,0 -0.5,0 -1,0 -0.5,0 -1,0 -0.5,0 -1,0 -0.5,0 -1,0 -0.5,0 -1,0 -0.5,0 -1,0 Q 9,60 8.625,59.875 8.25,59.75 8.125,59.375 8,59 8,58.5 8,58 8,57.5 8,57 8.125,56.625 8.25,56.25 8.625,56.125 9,56 9.375,55.875 9.75,55.75 9.875,55.375 10,55 10,54.5 q 0,-0.5 0,-1 0,-0.5 0,-1 0,-0.5 0,-1 0,-0.5 0.125,-0.875 0.125,-0.375 0.5,-0.5 Q 11,50 11.375,49.875 11.75,49.75 11.875,49.375 12,49 12,48.5 q 0,-0.5 0,-1 0,-0.5 0,-1 0,-0.5 0,-1 0,-0.5 0,-1 0,-0.5 0,-1 0,-0.5 0,-1 0,-0.5 0,-1 0,-0.5 0,-1 V 40 h 0.5 q 0.5,0 0.875,-0.125 0.375,-0.125 0.5,-0.5 Q 14,39 14,38.5 q 0,-0.5 0,-1 0,-0.5 0,-1 0,-0.5 0,-1 0,-0.5 0,-1 0,-0.5 0,-1 0,-0.5 0,-1 0,-0.5 0,-1 0,-0.5 0.125,-0.875 0.125,-0.375 0.5,-0.5 Q 15,30 15.375,29.875 15.75,29.75 15.875,29.375 16,29 16,28.5 q 0,-0.5 0,-1 0,-0.5 0,-1 0,-0.5 0,-1 0,-0.5 0,-1 0,-0.5 0,-1 0,-0.5 -0.125,-0.875 -0.125,-0.375 -0.5,-0.5 Q 15,22 14.5,22 q -0.5,0 -1,0 -0.5,0 -1,0 H 12 v -0.5 q 0,-0.5 0,-1 0,-0.5 0,-1 0,-0.5 0,-1 0,-0.5 0,-1 0,-0.5 0.125,-0.875 m -0.125,5 V 22 22.125 22.25 22 q 0,-0.25 0,-0.5 v -0.25 0.375 M 12.375,40 H 12 11.875 11.75 12 q 0.25,0 0.5,0 h 0.25 -0.375 M 18,50.125 V 50 49.625 49.25 49.5 q 0,0.25 0,0.5 v 0.25 -0.125 m 4,-8 V 42 41.625 41.25 41.5 q 0,0.25 0,0.5 v 0.25 -0.125"
           id="path1064"
           inkscape:connector-curvature="0" />
        <path
           style="fill:#8d8d8d;fill-opacity:1"
           d="M 12,22.5 V 22 h 0.5 q 0.5,0 1,0 0.5,0 1,0 0.5,0 0.875,0.125 0.375,0.125 0.5,0.5 Q 16,23 16,23.5 q 0,0.5 0,1 0,0.5 0,1 0,0.5 0,1 0,0.5 0,1 0,0.5 0,1 0,0.5 -0.125,0.875 -0.125,0.375 -0.5,0.5 Q 15,30 14.625,30.125 14.25,30.25 14.125,30.625 14,31 14,31.5 q 0,0.5 0,1 0,0.5 0,1 0,0.5 0,1 0,0.5 0,1 0,0.5 0,1 0,0.5 0,1 0,0.5 0,1 0,0.5 -0.125,0.875 -0.125,0.375 -0.5,0.5 Q 13,40 12.5,40 12,40 11.5,40 11,40 10.625,39.875 10.25,39.75 10.125,39.375 10,39 10,38.5 q 0,-0.5 0,-1 0,-0.5 0,-1 0,-0.5 0,-1 0,-0.5 0,-1 0,-0.5 0,-1 0,-0.5 0,-1 0,-0.5 0,-1 0,-0.5 0,-1 0,-0.5 0,-1 0,-0.5 0,-1 V 28 h 0.5 q 0.5,0 0.875,-0.125 0.375,-0.125 0.5,-0.5 Q 12,27 12,26.5 q 0,-0.5 0,-1 0,-0.5 0,-1 0,-0.5 0,-1 0,-0.5 0,-1 m -2,5.375 V 28 28.375 28.75 28.5 q 0,-0.25 0,-0.5 v -0.25 0.125 m 2,-6 V 22 22.375 22.75 22.5 q 0,-0.25 0,-0.5 v -0.25 0.125"
           id="path1066"
           inkscape:connector-curvature="0" />
        <path
           style="fill:#8d8d8d;fill-opacity:1"
           d="M 22,24.5 V 24 h 0.5 q 0.5,0 0.875,0.125 0.375,0.125 0.5,0.5 Q 24,25 24,25.5 q 0,0.5 0,1 0,0.5 0,1 0,0.5 0,1 0,0.5 0,1 0,0.5 0,1 0,0.5 0.125,0.875 0.125,0.375 0.5,0.5 0.375,0.125 0.75,0.25 0.375,0.125 0.5,0.5 Q 26,33 26,33.5 q 0,0.5 0,1 0,0.5 0,1 0,0.5 0,1 0,0.5 -0.125,0.875 -0.125,0.375 -0.5,0.5 Q 25,38 24.5,38 q -0.5,0 -1,0 -0.5,0 -1,0 H 22 v -0.5 q 0,-0.5 0,-1 0,-0.5 0,-1 0,-0.5 0,-1 0,-0.5 0,-1 0,-0.5 0,-1 0,-0.5 0,-1 0,-0.5 0,-1 0,-0.5 0,-1 0,-0.5 0,-1 0,-0.5 0,-1 0,-0.5 0,-1 0,-0.5 0,-1 0,-0.5 0,-1 m 0,13.125 V 38 38.125 38.25 38 q 0,-0.25 0,-0.5 v -0.25 0.375 m 0,-13.75 V 24 24.375 24.75 24.5 q 0,-0.25 0,-0.5 v -0.25 0.125"
           id="path1068"
           inkscape:connector-curvature="0" />
        <path
           style="fill:#8d8d8d;fill-opacity:1"
           d="m 20.125,42.625 q 0.125,-0.375 0.5,-0.5 Q 21,42 21.5,42 H 22 v 0.5 q 0,0.5 0,1 0,0.5 0,1 0,0.5 0,1 0,0.5 0,1 0,0.5 0,1 0,0.5 0,1 0,0.5 0.125,0.875 0.125,0.375 0.5,0.5 0.375,0.125 0.75,0.25 0.375,0.125 0.5,0.5 Q 24,51 24,51.5 q 0,0.5 0,1 0,0.5 0,1 0,0.5 0,1 0,0.5 0.125,0.875 0.125,0.375 0.5,0.5 Q 25,56 25.5,56 q 0.5,0 1,0 0.5,0 0.875,0.125 0.375,0.125 0.5,0.5 Q 28,57 28,57.5 q 0,0.5 0,1 0,0.5 -0.125,0.875 -0.125,0.375 -0.5,0.5 Q 27,60 26.5,60 q -0.5,0 -1,0 -0.5,0 -1,0 -0.5,0 -1,0 -0.5,0 -1,0 -0.5,0 -1,0 -0.5,0 -0.875,-0.125 -0.375,-0.125 -0.5,-0.5 Q 20,59 20,58.5 q 0,-0.5 0,-1 0,-0.5 0,-1 0,-0.5 0,-1 0,-0.5 -0.125,-0.875 -0.125,-0.375 -0.5,-0.5 Q 19,54 18.625,53.875 18.25,53.75 18.125,53.375 18,53 18,52.5 q 0,-0.5 0,-1 0,-0.5 0,-1 0,-0.5 0,-1 0,-0.5 0,-1 0,-0.5 0,-1 0,-0.5 0,-1 0,-0.5 0,-1 0,-0.5 0.125,-0.875 0.125,-0.375 0.5,-0.5 Q 19,44 19.375,43.875 19.75,43.75 19.875,43.375 20,43 20.125,42.625 M 22,42.375 V 42 41.875 41.75 42 q 0,0.25 0,0.5 v 0.25 -0.375"
           id="path1070"
           inkscape:connector-curvature="0" />
      </g>
      <g
         transform="matrix(0.41236514,0,0,0.41236514,81.008081,104.5408)"
         id="g1086">
        <path
           style="fill:#000000;fill-opacity:0"
           d="M 0,0.5 V 0 H 0.5 1 1.5 2 2.5 3 3.5 4 4.5 5 5.5 6 6.5 7 7.5 8 8.5 9 9.5 10 10.5 11 11.5 12 12.5 13 13.5 14 14.5 15 15.5 16 16.5 17 17.5 18 18.5 19 19.5 20 20.5 21 21.5 22 22.5 23 23.5 24 24.5 25 25.5 26 26.5 27 27.5 28 28.5 29 29.5 30 30.5 31 31.5 32 V 0.5 1 1.5 2 2.5 3 3.5 4 4.5 5 5.5 6 6.5 7 7.5 8 8.5 9 9.5 10 10.5 11 11.5 12 12.5 13 13.5 14 14.5 15 15.5 16 16.5 17 17.5 18 18.5 19 19.5 20 20.5 21 21.5 22 22.5 23 23.5 24 24.5 25 25.5 26 26.5 27 27.5 28 28.5 29 29.5 30 30.5 31 31.5 32 H 31.5 31 30.5 30 29.5 29 28.5 28 27.5 27 26.5 26 25.5 25 24.5 24 23.5 23 22.5 22 21.5 21 20.5 20 19.5 19 18.5 18 17.5 17 16.5 16 15.5 15 14.5 14 13.5 13 12.5 12 11.5 11 10.5 10 9.5 9 8.5 8 7.5 7 6.5 6 5.5 5 4.5 4 3.5 3 2.5 2 1.5 1 0.5 0 V 31.5 31 30.5 30 29.5 29 28.5 28 27.5 27 26.5 26 25.5 25 24.5 24 23.5 23 22.5 22 21.5 21 20.5 20 19.5 19 18.5 18 17.5 17 16.5 16 15.5 15 14.5 14 13.5 13 12.5 12 11.5 11 10.5 10 9.5 9 8.5 8 7.5 7 6.5 6 5.5 5 4.5 4 3.5 3 2.5 2 1.5 1 0.5 M 17.5,30 q 0.5,0 0.5,-0.5 0,-0.5 0,-1 0,-0.5 0,-1 0,-0.5 0,-1 0,-0.5 0,-1 0,-0.5 0,-1 0,-0.5 0.5,-0.5 0.5,0 1,0 0.5,0 0.5,-0.5 0,-0.5 0.125,-0.875 0.125,-0.375 0.5,-0.5 Q 21,22 21.5,22 q 0.5,0 1,0 0.5,0 1,0 0.5,0 0.5,-0.5 0,-0.5 0,-1 0,-0.5 0.5,-0.5 0.5,0 1,0 0.5,0 0.5,-0.5 0,-0.5 0,-1 0,-0.5 0,-1 0,-0.5 0,-1 0,-0.5 0,-1 0,-0.5 0,-1 0,-0.5 0,-1 0,-0.5 0,-1 0,-0.5 0,-1 0,-0.5 0,-1 0,-0.5 0,-1 Q 26,9 26,8.5 26,8 26,7.5 26,7 26,6.5 26,6 26,5.5 26,5 26,4.5 26,4 25.5,4 25,4 24.5,4 24,4 23.5,4 23,4 22.5,4 22,4 21.5,4 21,4 20.625,3.875 20.25,3.75 20.125,3.375 20,3 20,2.5 20,2 19.5,2 19,2 18.5,2 18,2 17.5,2 17,2 16.5,2 16,2 15.5,2 15,2 14.5,2 14,2 13.5,2 13,2 12.5,2 12,2 12,2.5 12,3 12,3.5 12,4 11.5,4 11,4 10.5,4 10,4 10,4.5 q 0,0.5 0,1 0,0.5 0,1 0,0.5 0,1 Q 10,8 9.5,8 9,8 8.5,8 8,8 8,8.5 q 0,0.5 0,1 0,0.5 0,1 0,0.5 0,1 0,0.5 0,1 0,0.5 0,1 0,0.5 0,1 0,0.5 0,1 0,0.5 0,1 0,0.5 0,1 0,0.5 0,1 0,0.5 0,1 0,0.5 0.5,0.5 0.5,0 1,0 0.5,0 0.5,0.5 0,0.5 0,1 0,0.5 0,1 0,0.5 0,1 0,0.5 0.5,0.5 0.5,0 0.875,0.125 0.375,0.125 0.5,0.5 Q 12,25 12,25.5 q 0,0.5 0,1 0,0.5 0,1 0,0.5 0.5,0.5 0.5,0 1,0 0.5,0 0.5,0.5 0,0.5 0,1 0,0.5 0.5,0.5 0.5,0 1,0 0.5,0 1,0 0.5,0 1,0"
           id="path1074"
           inkscape:connector-curvature="0" />
        <path
           style="fill:#000000;fill-opacity:1"
           d="M 12,2.5 Q 12,2 12.5,2 q 0.5,0 1,0 0.5,0 1,0 0.5,0 1,0 0.5,0 1,0 0.5,0 1,0 0.5,0 1,0 0.5,0 1,0 0.5,0 0.5,0.5 0,0.5 0.125,0.875 0.125,0.375 0.5,0.5 Q 21,4 21.5,4 q 0.5,0 1,0 0.5,0 1,0 0.5,0 1,0 0.5,0 1,0 0.5,0 0.5,0.5 0,0.5 0,1 0,0.5 0,1 0,0.5 0,1 0,0.5 0,1 0,0.5 0,1 0,0.5 0,1 0,0.5 0,1 0,0.5 0,1 0,0.5 0,1 0,0.5 0,1 0,0.5 0,1 0,0.5 0,1 0,0.5 0,1 0,0.5 0,1 0,0.5 0,1 0,0.5 -0.5,0.5 -0.5,0 -1,0 -0.5,0 -0.5,0.5 0,0.5 0,1 0,0.5 -0.5,0.5 -0.5,0 -1,0 -0.5,0 -1,0 -0.5,0 -0.875,0.125 -0.375,0.125 -0.5,0.5 Q 20,23 20,23.5 20,24 19.5,24 q -0.5,0 -1,0 -0.5,0 -0.5,0.5 0,0.5 0,1 0,0.5 0,1 0,0.5 0,1 0,0.5 0,1 0,0.5 0,1 0,0.5 -0.5,0.5 -0.5,0 -1,0 -0.5,0 -1,0 -0.5,0 -1,0 Q 14,30 14,29.5 14,29 14,28.5 14,28 13.5,28 13,28 12.5,28 12,28 12,27.5 q 0,-0.5 0,-1 0,-0.5 0,-1 0,-0.5 -0.125,-0.875 -0.125,-0.375 -0.5,-0.5 Q 11,24 10.5,24 10,24 10,23.5 q 0,-0.5 0,-1 0,-0.5 0,-1 0,-0.5 0,-1 Q 10,20 9.5,20 9,20 8.5,20 8,20 8,19.5 8,19 8,18.5 8,18 8,17.5 8,17 8,16.5 8,16 8,15.5 8,15 8,14.5 8,14 8,13.5 8,13 8,12.5 8,12 8,11.5 8,11 8,10.5 8,10 8,9.5 8,9 8,8.5 8,8 8.5,8 9,8 9.5,8 10,8 10,7.5 10,7 10,6.5 10,6 10,5.5 10,5 10,4.5 10,4 10.5,4 11,4 11.5,4 12,4 12,3.5 12,3 12,2.5 m 2.625,23.375 q 0.375,0.125 0.75,0 0.375,-0.125 0.5,-0.5 Q 16,25 16,24.5 q 0,-0.5 0,-1 0,-0.5 0.125,-0.875 0.125,-0.375 0.5,-0.5 Q 17,22 17.5,22 q 0.5,0 1,0 0.5,0 0.875,-0.125 0.375,-0.125 0.5,-0.5 Q 20,21 20.125,20.625 20.25,20.25 20.625,20.125 21,20 21.375,19.875 21.75,19.75 21.875,19.375 22,19 22.125,18.625 22.25,18.25 22.625,18.125 23,18 23.375,17.875 23.75,17.75 23.875,17.375 24,17 24,16.5 q 0,-0.5 0,-1 0,-0.5 0,-1 0,-0.5 0,-1 0,-0.5 0,-1 0,-0.5 0,-1 0,-0.5 0,-1 0,-0.5 0,-1 Q 24,9 24,8.5 24,8 24,7.5 24,7 23.875,6.625 23.75,6.25 23.375,6.125 23,6 22.5,6 22,6 21.5,6 21,6 20.625,5.875 20.25,5.75 20.125,5.375 20,5 19.875,4.625 19.75,4.25 19.375,4.125 19,4 18.5,4 18,4 17.5,4 17,4 16.5,4 16,4 15.5,4 15,4 14.625,4.125 14.25,4.25 14.125,4.625 14,5 13.875,5.375 13.75,5.75 13.375,5.875 13,6 12.625,6.125 12.25,6.25 12.125,6.625 12,7 12,7.5 12,8 12,8.5 12,9 11.875,9.375 11.75,9.75 11.375,9.875 11,10 10.625,10.125 10.25,10.25 10.125,10.625 10,11 10,11.5 q 0,0.5 0,1 0,0.5 0,1 0,0.5 0,1 0,0.5 0,1 0,0.5 0,1 0,0.5 0.125,0.875 0.125,0.375 0.5,0.5 0.375,0.125 0.75,0.25 0.375,0.125 0.5,0.5 Q 12,19 12,19.5 q 0,0.5 0,1 0,0.5 0,1 0,0.5 0,1 0,0.5 0.125,0.875 0.125,0.375 0.5,0.5 0.375,0.125 0.75,0.25 0.375,0.125 0.5,0.5 0.125,0.375 0.25,0.75 0.125,0.375 0.5,0.5"
           id="path1076"
           inkscape:connector-curvature="0" />
        <path
           style="fill:#ff0000;fill-opacity:1"
           d="M 14.125,4.625 Q 14.25,4.25 14.625,4.125 15,4 15.5,4 H 16 v 0.5 q 0,0.5 0,1 0,0.5 0,1 0,0.5 0,1 0,0.5 0,1 0,0.5 0,1 0,0.5 0,1 0,0.5 0,1 0,0.5 0,1 0,0.5 0,1 0,0.5 0,1 0,0.5 0.125,0.875 0.125,0.375 0.5,0.5 Q 17,16 17.5,16 q 0.5,0 1,0 0.5,0 1,0 0.5,0 1,0 0.5,0 0.875,-0.125 0.375,-0.125 0.5,-0.5 Q 22,15 22,14.5 q 0,-0.5 0,-1 0,-0.5 0,-1 0,-0.5 0,-1 0,-0.5 0.125,-0.875 0.125,-0.375 0.5,-0.5 Q 23,10 23.5,10 H 24 v 0.5 q 0,0.5 0,1 0,0.5 0,1 0,0.5 0,1 0,0.5 0,1 0,0.5 0,1 0,0.5 0,1 0,0.5 -0.125,0.875 -0.125,0.375 -0.5,0.5 Q 23,18 22.625,18.125 22.25,18.25 22.125,18.625 22,19 21.875,19.375 21.75,19.75 21.375,19.875 21,20 20.625,20.125 20.25,20.25 20.125,20.625 20,21 19.875,21.375 19.75,21.75 19.375,21.875 19,22 18.5,22 q -0.5,0 -1,0 -0.5,0 -0.875,0.125 -0.375,0.125 -0.5,0.5 Q 16,23 16,23.5 q 0,0.5 0,1 0,0.5 -0.125,0.875 -0.125,0.375 -0.5,0.5 -0.375,0.125 -0.75,0 -0.375,-0.125 -0.5,-0.5 Q 14,25 13.875,24.625 13.75,24.25 13.375,24.125 13,24 12.625,23.875 12.25,23.75 12.125,23.375 12,23 12,22.5 q 0,-0.5 0,-1 0,-0.5 0,-1 0,-0.5 0,-1 0,-0.5 -0.125,-0.875 -0.125,-0.375 -0.5,-0.5 Q 11,18 10.625,17.875 10.25,17.75 10.125,17.375 10,17 10,16.5 q 0,-0.5 0,-1 0,-0.5 0,-1 0,-0.5 0,-1 0,-0.5 0,-1 0,-0.5 0,-1 0,-0.5 0.125,-0.875 0.125,-0.375 0.5,-0.5 Q 11,10 11.375,9.875 11.75,9.75 11.875,9.375 12,9 12,8.5 12,8 12,7.5 12,7 12.125,6.625 12.25,6.25 12.625,6.125 13,6 13.375,5.875 13.75,5.75 13.875,5.375 14,5 14.125,4.625 M 24,10.375 V 10 9.875 9.75 10 q 0,0.25 0,0.5 v 0.25 -0.375 M 16.125,4 H 16 15.625 15.25 15.5 q 0.25,0 0.5,0 h 0.25 -0.125"
           id="path1078"
           inkscape:connector-curvature="0" />
        <path
           style="fill:#ffa900;fill-opacity:1"
           d="M 16,4.5 V 4 h 0.5 q 0.5,0 1,0 0.5,0 1,0 0.5,0 0.875,0.125 0.375,0.125 0.5,0.5 Q 20,5 20.125,5.375 20.25,5.75 20.625,5.875 21,6 21.5,6 q 0.5,0 1,0 0.5,0 0.875,0.125 0.375,0.125 0.5,0.5 Q 24,7 24,7.5 q 0,0.5 0,1 0,0.5 0,1 V 10 h -0.5 q -0.5,0 -0.875,0.125 -0.375,0.125 -0.5,0.5 Q 22,11 22,11.5 q 0,0.5 0,1 0,0.5 0,1 0,0.5 0,1 0,0.5 -0.125,0.875 -0.125,0.375 -0.5,0.5 Q 21,16 20.5,16 q -0.5,0 -1,0 -0.5,0 -1,0 -0.5,0 -1,0 -0.5,0 -0.875,-0.125 -0.375,-0.125 -0.5,-0.5 Q 16,15 16,14.5 q 0,-0.5 0,-1 0,-0.5 0,-1 0,-0.5 0,-1 0,-0.5 0,-1 0,-0.5 0,-1 0,-0.5 0,-1 0,-0.5 0,-1 0,-0.5 0,-1 0,-0.5 0,-1 0,-0.5 0,-1 m 2.625,9.375 q 0.375,0.125 0.75,0 0.375,-0.125 0.5,-0.5 0.125,-0.375 0,-0.75 -0.125,-0.375 -0.5,-0.5 -0.375,-0.125 -0.75,0 -0.375,0.125 -0.5,0.5 -0.125,0.375 0,0.75 0.125,0.375 0.5,0.5 m 0,-6 Q 19,8 19.375,7.875 19.75,7.75 19.875,7.375 20,7 19.875,6.625 19.75,6.25 19.375,6.125 19,6 18.625,6.125 q -0.375,0.125 -0.5,0.5 -0.125,0.375 0,0.75 0.125,0.375 0.5,0.5 M 24,10.125 V 10 9.625 9.25 9.5 q 0,0.25 0,0.5 v 0.25 -0.125 M 16.375,4 H 16 15.875 15.75 16 q 0.25,0 0.5,0 h 0.25 -0.375"
           id="path1080"
           inkscape:connector-curvature="0" />
        <path
           style="fill:#ff0000;fill-opacity:1"
           d="m 18.125,6.625 q 0.125,-0.375 0.5,-0.5 0.375,-0.125 0.75,0 0.375,0.125 0.5,0.5 0.125,0.375 0,0.75 -0.125,0.375 -0.5,0.5 Q 19,8 18.625,7.875 18.25,7.75 18.125,7.375 18,7 18.125,6.625"
           id="path1082"
           inkscape:connector-curvature="0" />
        <path
           style="fill:#ff0000;fill-opacity:1"
           d="m 18.125,12.625 q 0.125,-0.375 0.5,-0.5 0.375,-0.125 0.75,0 0.375,0.125 0.5,0.5 0.125,0.375 0,0.75 -0.125,0.375 -0.5,0.5 -0.375,0.125 -0.75,0 -0.375,-0.125 -0.5,-0.5 -0.125,-0.375 0,-0.75"
           id="path1084"
           inkscape:connector-curvature="0" />
      </g>
    </g>
    <g
       id="layer2"
       inkscape:label="Canvas"
       transform="matrix(40.32572,0,0,40.32572,-2867.5401,-3283.6282)" />
    <text
       xml:space="preserve"
       style="font-style:normal;font-weight:normal;font-size:26.8092556px;line-height:1.25;font-family:sans-serif;letter-spacing:0px;word-spacing:0px;fill:#000000;fill-opacity:1;stroke:none;stroke-width:0.6702314"
       x="14.817055"
       y="103.84608"
       id="text1045"><tspan
         sodipodi:role="line"
         id="tspan1043"
         x="14.817055"
         y="103.84608"
         style="font-style:normal;font-variant:normal;font-weight:normal;font-stretch:normal;font-family:'OCR A Extended';-inkscape-font-specification:'OCR A Extended';fill:#ffffff;stroke-width:0.6702314">minijetpack</tspan></text>
    <text
       id="text1053"
       y="111.50517"
       x="158.84451"
       style="font-style:normal;font-weight:normal;font-size:4.86207819px;line-height:1.25;font-family:sans-serif;letter-spacing:0px;word-spacing:0px;fill:#000000;fill-opacity:1;stroke:none;stroke-width:0.12155195"
       xml:space="preserve"><tspan
         style="font-style:normal;font-variant:normal;font-weight:normal;font-stretch:normal;font-family:'OCR A Extended';-inkscape-font-specification:'OCR A Extended';fill:#ffffff;stroke-width:0.12155195"
         y="111.50517"
         x="158.84451"
         id="tspan1051"
         sodipodi:role="line">v0.01 alpha</tspan></text>
    <text
       id="text1057"
       y="190.60585"
       x="26.175648"
       style="font-style:normal;font-weight:normal;font-size:11.65983391px;line-height:1.25;font-family:sans-serif;letter-spacing:0px;word-spacing:0px;fill:#000000;fill-opacity:1;stroke:none;stroke-width:0.29149583"
       xml:space="preserve"><tspan
         style="font-style:normal;font-variant:normal;font-weight:normal;font-stretch:normal;font-family:'3270Medium NF';-inkscape-font-specification:'3270Medium NF';fill:#ffffff;stroke-width:0.29149583"
         y="190.60585"
         x="26.175648"
         id="tspan1055"
         sodipodi:role="line">press ENTER to play</tspan></text>
    <rect
       style="fill:none;fill-opacity:1;stroke:#ffffff;stroke-width:0.5;stroke-opacity:1"
       id="rect1059"
       width="130.40178"
       height="20.788692"
       x="19.276785"
       y="177.18155"
       ry="10.205358" />
  </g>
</svg>
