<?xml version="1.0" encoding="UTF-8" standalone="no"?>
<!-- Created with Inkscape (http://www.inkscape.org/) -->

<svg
   width="142.11847mm"
   height="71.059235mm"
   viewBox="0 0 142.11847 71.059235"
   version="1.1"
   id="svg1"
   xmlns:xlink="http://www.w3.org/1999/xlink"
   xmlns="http://www.w3.org/2000/svg"
   xmlns:svg="http://www.w3.org/2000/svg">
  <defs
     id="defs1">
    <linearGradient
       id="linearGradient2">
      <stop
         style="stop-color:#2b0000;stop-opacity:1"
         offset="0"
         id="stop2" />
      <stop
         style="stop-color:#d45500;stop-opacity:1"
         offset="1"
         id="stop3" />
    </linearGradient>
    <linearGradient
       xlink:href="#linearGradient2"
       id="linearGradient3"
       x1="157.29617"
       y1="256.64111"
       x2="166.03622"
       y2="205.2439"
       gradientUnits="userSpaceOnUse" />
  </defs>
  <g
     id="layer1"
     transform="translate(-36.219514,-67.609739)">
    <g
       id="g3"
       transform="translate(6.554007,-123.83624)">
      <rect
         style="fill:url(#linearGradient3);fill-opacity:1;stroke:none;stroke-width:3.55172"
         id="rect2"
         width="142.11847"
         height="71.059235"
         x="29.665506"
         y="191.44598"
         ry="6.5222864" />
      <text
         xml:space="preserve"
         style="font-style:italic;font-weight:bold;font-stretch:condensed;font-size:3.10444px;line-height:1;font-family:Arial;-inkscape-font-specification:'Arial Bold Italic Condensed';fill:#f9f9f9;stroke:#ffcc00;stroke-width:4"
         x="43.463413"
         y="296.31012"
         id="text4"><tspan
           id="tspan4"
           style="stroke-width:4"
           x="43.463413"
           y="296.31012" /></text>
    </g>
    <g
       id="g11"
       transform="matrix(1.6067075,0,0,1.6067075,-143.26178,-203.50301)">
      <path
         id="text1"
         style="font-size:50.4167px;line-height:1;font-family:'Berlin Sans FB Demi';-inkscape-font-specification:'Berlin Sans FB Demi';fill:#ff9955;stroke-width:28.5827"
         d="m 138.46774,193.2921 c 0,3.26592 0.033,5.1697 0.0987,5.71128 0.0657,0.52518 0.25456,0.77968 0.56638,0.76326 l 0.34468,-0.0248 c 2.69151,-0.13129 4.71021,-0.22155 6.05596,-0.27078 5.25174,-0.19694 8.82944,-0.29559 10.7332,-0.29559 1.77246,0 4.43922,0.10704 8.00055,0.32039 3.56133,0.19694 6.2202,0.29508 7.97626,0.29508 0.41029,0 0.66426,-0.23772 0.76274,-0.71366 0.24617,-1.14881 0.36949,-4.75118 0.36949,-10.80709 v -1.7477 c 0.0164,-0.77134 0.0248,-1.36221 0.0248,-1.7725 0,-5.39944 -1.14079,-9.17444 -3.42201,-11.32438 -1.9858,-1.88734 -4.48884,-2.83083 -7.50859,-2.83083 -1.44422,0 -2.80645,0.29543 -4.08655,0.88625 -1.42782,0.65646 -2.46996,1.55903 -3.12642,2.70785 -0.2462,0.4267 -0.4267,0.64027 -0.54158,0.64027 0.0492,0 -0.26248,-0.30382 -0.93535,-0.91105 -0.77135,-0.6893 -1.54271,-1.2471 -2.31407,-1.67381 -1.08316,-0.59082 -2.10904,-0.88625 -3.07733,-0.88625 -3.70903,0 -6.34273,1.27146 -7.90183,3.81528 -1.16524,1.92016 -1.82168,4.89913 -1.96939,8.9364 -0.0328,0.88623 -0.0496,3.94706 -0.0496,9.18239 z m 6.96699,-6.10505 c 0,-1.80529 0.12331,-3.10193 0.36948,-3.88969 0.45953,-1.4114 1.39463,-2.11718 2.80603,-2.11718 2.01864,0 3.02824,1.76419 3.02824,5.2927 0,1.90375 -0.074,2.9459 -0.22169,3.12642 -0.19694,0.279 -1.11577,0.41858 -2.75693,0.41858 -0.31183,0 -0.77989,-0.0247 -1.40353,-0.0739 -0.64006,-0.0657 -1.116,-0.0982 -1.42782,-0.0982 -0.26258,0 -0.39377,-0.88629 -0.39377,-2.65875 z m 13.44104,-1.05885 c 0,-1.77246 0.16424,-3.05232 0.49247,-3.84008 0.52518,-1.23087 1.52639,-1.8464 3.00344,-1.8464 1.42781,0 2.3797,0.59926 2.85564,1.79731 0.279,0.72211 0.41858,1.96891 0.41858,3.74137 0,2.14993 -0.0986,3.33166 -0.29559,3.54501 -0.21336,0.21335 -1.28855,0.32039 -3.22513,0.32039 -1.85452,0 -2.85522,-0.0903 -3.00292,-0.27078 -0.16412,-0.18053 -0.24649,-1.32972 -0.24649,-3.44682 z" />
      <path
         d="m 115.14709,173.36203 v 7.90702 c 0.61841,-0.22086 1.63709,-0.33486 3.08509,-0.33486 2.75716,0 4.97314,0.91095 6.64714,2.73265 1.65757,1.75605 2.48615,4.02085 2.48615,6.79442 0,2.92127 -0.76298,5.27633 -2.28927,7.0652 -1.62475,1.88734 -3.85701,2.83083 -6.69623,2.83083 -1.5254,0 -2.5936,-0.12255 -3.23288,-0.3607 v 8.05119 c 2.26421,-0.007 4.78833,-0.0119 5.44877,-0.0346 4.95632,-0.16412 8.8048,-1.82966 11.54554,-4.99711 3.10181,-3.54492 4.65243,-7.72976 4.65243,-12.55479 0,-2.65869 -0.57407,-5.24358 -1.72289,-7.75457 -1.19805,-2.65869 -2.83106,-4.72672 -4.89892,-6.20376 -2.19917,-1.57553 -5.24373,-2.56047 -9.1333,-2.95435 -1.0236,-0.10123 -3.19505,-0.1547 -5.89163,-0.18655 z"
         style="font-size:50.4167px;line-height:1;font-family:'Berlin Sans FB Demi';-inkscape-font-specification:'Berlin Sans FB Demi';fill:#ff7f2a;stroke-width:28.5827"
         id="path1" />
      <path
         d="m 196.72116,208.04778 v -7.90702 c -0.61841,0.22086 -1.63709,0.33486 -3.08509,0.33486 -2.75716,0 -4.97314,-0.91095 -6.64714,-2.73265 -1.65757,-1.75605 -2.48615,-4.02085 -2.48615,-6.79442 0,-2.92127 0.76298,-5.27633 2.28927,-7.0652 1.62475,-1.88734 3.85701,-2.83083 6.69623,-2.83083 1.5254,0 2.5936,0.12255 3.23288,0.3607 v -8.05119 c -2.26421,0.007 -4.78833,0.0119 -5.44877,0.0346 -4.95632,0.16412 -8.8048,1.82966 -11.54554,4.99711 -3.10181,3.54492 -4.65243,7.72976 -4.65243,12.55479 0,2.65869 0.57407,5.24358 1.72289,7.75457 1.19805,2.65869 2.83106,4.72672 4.89892,6.20376 2.19917,1.57553 5.24373,2.56047 9.1333,2.95435 1.0236,0.10123 3.19505,0.1547 5.89163,0.18655 z"
         style="font-size:50.4167px;line-height:1;font-family:'Berlin Sans FB Demi';-inkscape-font-specification:'Berlin Sans FB Demi';fill:#ff7f2a;stroke-width:28.5827"
         id="path6" />
      <g
         id="g8"
         transform="translate(112.79791,11.038328)">
        <ellipse
           style="fill:#ff0000;stroke-width:2.80476"
           id="path8"
           cx="35.874561"
           cy="189.89374"
           rx="5.1742158"
           ry="10.175958" />
        <ellipse
           style="fill:#800000;stroke-width:1.68286"
           id="ellipse8"
           cx="35.874561"
           cy="186.18962"
           rx="3.1045294"
           ry="6.1055746" />
      </g>
      <g
         id="g10"
         transform="translate(126.55624,11.038328)">
        <ellipse
           style="fill:#ff0000;stroke-width:2.80476"
           id="ellipse9"
           cx="35.874561"
           cy="189.89374"
           rx="5.1742158"
           ry="10.175958" />
        <ellipse
           style="fill:#800000;stroke-width:1.68286"
           id="ellipse10"
           cx="35.874561"
           cy="186.18962"
           rx="3.1045294"
           ry="6.1055746" />
      </g>
    </g>
  </g>
</svg>
